<svg width="22" height="16" viewBox="0 0 22 16" fill="none" xmlns="http://www.w3.org/2000/svg">
<g clip-path="url(#clip0_39_3532)">
<path d="M0 0H21.3333V16H0V0Z" fill="#74ACDF"/>
<path d="M0 5.33333H21.3333V10.6667H0V5.33333Z" fill="white"/>
<path d="M10.5643 8.0416L11.4763 10.0256C11.4763 10.0256 11.4923 10.064 11.5179 10.0544C11.5435 10.0416 11.5275 10.0032 11.5275 10.0032L10.7691 7.9552M10.7467 8.7296C10.7339 9.0304 10.9195 9.1968 10.8971 9.4656C10.8715 9.7376 11.0187 9.888 11.0571 9.9936C11.0891 10.0992 11.0187 10.16 11.0475 10.176C11.0795 10.192 11.1435 10.1088 11.1243 9.9584C11.1019 9.8112 10.9899 9.7664 11.0155 9.4368C11.0411 9.1072 10.8811 9.0304 10.9195 8.7328" fill="#F6B40E"/>
<path d="M10.5643 8.0416L11.4763 10.0256C11.4763 10.0256 11.4923 10.064 11.5179 10.0544C11.5435 10.0416 11.5275 10.0032 11.5275 10.0032L10.7691 7.9552M10.7467 8.7296C10.7339 9.0304 10.9195 9.1968 10.8971 9.4656C10.8715 9.7376 11.0187 9.888 11.0571 9.9936C11.0891 10.0992 11.0187 10.16 11.0475 10.176C11.0795 10.192 11.1435 10.1088 11.1243 9.9584C11.1019 9.8112 10.9899 9.7664 11.0155 9.4368C11.0411 9.1072 10.8811 9.0304 10.9195 8.7328" stroke="#85340A" stroke-width="0.132"/>
<path d="M10.5561 7.99924L10.6394 10.1812C10.6394 10.1812 10.6395 10.2228 10.6669 10.2238C10.6954 10.2217 10.6953 10.1801 10.6953 10.1801L10.7784 7.99779M10.4613 8.70467C10.3344 8.97768 10.4422 9.20244 10.3186 9.4422C10.1909 9.6837 10.2693 9.87898 10.2644 9.99124C10.2536 10.101 10.1652 10.1303 10.1857 10.1561C10.2092 10.1831 10.3001 10.1307 10.34 9.98444C10.3756 9.83987 10.2893 9.75562 10.439 9.4609C10.5888 9.16619 10.4704 9.03401 10.6198 8.77376" fill="#F6B40E"/>
<path d="M10.5561 7.99924L10.6394 10.1812C10.6394 10.1812 10.6395 10.2228 10.6669 10.2238C10.6954 10.2217 10.6953 10.1801 10.6953 10.1801L10.7784 7.99779M10.4613 8.70467C10.3344 8.97768 10.4422 9.20244 10.3186 9.4422C10.1909 9.6837 10.2693 9.87898 10.2644 9.99124C10.2536 10.101 10.1652 10.1303 10.1857 10.1561C10.2092 10.1831 10.3001 10.1307 10.34 9.98444C10.3756 9.83987 10.2893 9.75562 10.439 9.4609C10.5888 9.16619 10.4704 9.03401 10.6198 8.77376" stroke="#85340A" stroke-width="0.132"/>
<path d="M10.5648 7.957L9.8068 10.0048C9.8068 10.0048 9.79096 10.0432 9.81585 10.0546C9.84301 10.0636 9.85885 10.0251 9.85885 10.0251L10.7707 8.04072M10.2073 8.57246C9.98556 8.77611 9.99914 9.02501 9.79323 9.19924C9.58279 9.37347 9.58053 9.58391 9.53301 9.68573C9.48097 9.78303 9.3882 9.77624 9.39725 9.80792C9.40856 9.84186 9.51265 9.82829 9.60542 9.70836C9.69367 9.58844 9.64615 9.47756 9.89731 9.2626C10.1485 9.04764 10.0896 8.8802 10.3272 8.69691" fill="#F6B40E"/>
<path d="M10.5648 7.957L9.8068 10.0048C9.8068 10.0048 9.79096 10.0432 9.81585 10.0546C9.84301 10.0636 9.85885 10.0251 9.85885 10.0251L10.7707 8.04072M10.2073 8.57246C9.98556 8.77611 9.99914 9.02501 9.79323 9.19924C9.58279 9.37347 9.58053 9.58391 9.53301 9.68573C9.48097 9.78303 9.3882 9.77624 9.39725 9.80792C9.40856 9.84186 9.51265 9.82829 9.60542 9.70836C9.69367 9.58844 9.64615 9.47756 9.89731 9.2626C10.1485 9.04764 10.0896 8.8802 10.3272 8.69691" stroke="#85340A" stroke-width="0.132"/>
<path d="M10.589 7.92131L9.10503 9.52313C9.10503 9.52313 9.07568 9.55261 9.09434 9.57259C9.11596 9.59134 9.14532 9.56186 9.14532 9.56186L10.7472 8.07746M10.0232 8.35311C9.74037 8.4564 9.65766 8.69155 9.40075 8.77372C9.13966 8.85416 9.05704 9.04771 8.97417 9.12359C8.88886 9.19357 8.80575 9.1518 8.80198 9.18453C8.79945 9.22021 8.90081 9.2475 9.03241 9.17221C9.15983 9.09518 9.15836 8.97456 9.47267 8.87208C9.78698 8.7696 9.7967 8.59239 10.0863 8.51398" fill="#F6B40E"/>
<path d="M10.589 7.92131L9.10503 9.52313C9.10503 9.52313 9.07568 9.55261 9.09434 9.57259C9.11596 9.59134 9.14532 9.56186 9.14532 9.56186L10.7472 8.07746M10.0232 8.35311C9.74037 8.4564 9.65766 8.69155 9.40075 8.77372C9.13966 8.85416 9.05704 9.04771 8.97417 9.12359C8.88886 9.19357 8.80575 9.1518 8.80198 9.18453C8.79945 9.22021 8.90081 9.2475 9.03241 9.17221C9.15983 9.09518 9.15836 8.97456 9.47267 8.87208C9.78698 8.7696 9.7967 8.59239 10.0863 8.51398" stroke="#85340A" stroke-width="0.132"/>
<path d="M10.8042 8.78079C10.8202 9.06879 10.9834 9.19679 10.9514 9.46239C11.0218 9.25439 10.8522 9.09119 10.8618 8.78399M10.6154 8.02239L11.2394 9.38559L10.7178 7.98079" fill="#85340A"/>
<path d="M10.495 8.77402C10.3996 9.04622 10.5014 9.22693 10.3701 9.46006C10.5148 9.29484 10.4206 9.07916 10.547 8.79902M10.6108 8.0011L10.6656 9.49932L10.7213 8.00185" fill="#85340A"/>
<path d="M10.2119 8.6494C10.0195 8.86436 10.0444 9.07027 9.83398 9.23545C10.0308 9.13815 10.0263 8.90283 10.2503 8.69239M10.6146 7.97963L10.0919 9.38479L10.7165 8.02262" fill="#85340A"/>
<path d="M9.99794 8.42592C9.73799 8.55091 9.68218 8.75067 9.42456 8.82275C9.64366 8.80819 9.72954 8.58905 10.017 8.48036M10.6264 7.96126L9.60572 9.05944L10.704 8.03995" fill="#85340A"/>
<path d="M10.6251 7.8976L8.64109 8.8096C8.64109 8.8096 8.60269 8.8256 8.61229 8.8512C8.62509 8.8768 8.66349 8.8608 8.66349 8.8608L10.7115 8.1024M9.93709 8.08C9.63629 8.0672 9.46989 8.2528 9.20109 8.2304C8.92909 8.2048 8.77869 8.352 8.67309 8.3904C8.56749 8.4224 8.50669 8.352 8.49069 8.3808C8.47469 8.4128 8.55789 8.4768 8.70829 8.4576C8.85549 8.4352 8.90029 8.3232 9.22989 8.3488C9.55949 8.3744 9.63629 8.2144 9.93389 8.2528" fill="#F6B40E"/>
<path d="M10.6251 7.8976L8.64109 8.8096C8.64109 8.8096 8.60269 8.8256 8.61229 8.8512C8.62509 8.8768 8.66349 8.8608 8.66349 8.8608L10.7115 8.1024M9.93709 8.08C9.63629 8.0672 9.46989 8.2528 9.20109 8.2304C8.92909 8.2048 8.77869 8.352 8.67309 8.3904C8.56749 8.4224 8.50669 8.352 8.49069 8.3808C8.47469 8.4128 8.55789 8.4768 8.70829 8.4576C8.85549 8.4352 8.90029 8.3232 9.22989 8.3488C9.55949 8.3744 9.63629 8.2144 9.93389 8.2528" stroke="#85340A" stroke-width="0.132"/>
<path d="M10.6674 7.88948L8.48545 7.97282C8.48545 7.97282 8.44385 7.9729 8.44292 8.00023C8.44495 8.02878 8.48655 8.02869 8.48655 8.02869L10.6689 8.11176M9.962 7.79471C9.689 7.66778 9.46424 7.77557 9.22447 7.65201C8.98297 7.52427 8.78769 7.60271 8.67543 7.59777C8.56562 7.58693 8.53639 7.49862 8.51059 7.5191C8.48356 7.54254 8.53594 7.63351 8.68224 7.67333C8.8268 7.70896 8.91105 7.62263 9.20577 7.77242C9.50048 7.9222 9.63266 7.80377 9.89292 7.95313" fill="#F6B40E"/>
<path d="M10.6674 7.88948L8.48545 7.97282C8.48545 7.97282 8.44385 7.9729 8.44292 8.00023C8.44495 8.02878 8.48655 8.02869 8.48655 8.02869L10.6689 8.11176M9.962 7.79471C9.689 7.66778 9.46424 7.77557 9.22447 7.65201C8.98297 7.52427 8.78769 7.60271 8.67543 7.59777C8.56562 7.58693 8.53639 7.49862 8.51059 7.5191C8.48356 7.54254 8.53594 7.63351 8.68223 7.67333C8.8268 7.70896 8.91105 7.62263 9.20577 7.77242C9.50048 7.9222 9.63266 7.80377 9.89292 7.95313" stroke="#85340A" stroke-width="0.132"/>
<path d="M10.7097 7.89818L8.66188 7.14016C8.66188 7.14016 8.62341 7.12432 8.6121 7.14921C8.60304 7.17637 8.64151 7.19221 8.64151 7.19221L10.6259 8.10409M10.0942 7.54067C9.89055 7.31892 9.64164 7.3325 9.46741 7.12659C9.29318 6.91615 9.08275 6.91389 8.98092 6.86637C8.88363 6.81433 8.89041 6.72155 8.85874 6.73061C8.82479 6.74192 8.83837 6.84601 8.9583 6.93878C9.07822 7.02702 9.1891 6.97951 9.40406 7.23067C9.61902 7.48184 9.78646 7.42301 9.96974 7.66059" fill="#F6B40E"/>
<path d="M10.7097 7.89818L8.66188 7.14016C8.66188 7.14016 8.62341 7.12432 8.6121 7.14921C8.60304 7.17637 8.64151 7.19221 8.64151 7.19221L10.6259 8.10409M10.0942 7.54067C9.89055 7.31892 9.64164 7.3325 9.46741 7.12659C9.29318 6.91615 9.08275 6.91389 8.98092 6.86637C8.88363 6.81433 8.89041 6.72156 8.85874 6.73061C8.82479 6.74192 8.83837 6.84601 8.9583 6.93878C9.07822 7.02702 9.1891 6.97951 9.40406 7.23067C9.61902 7.48184 9.78646 7.423 9.96974 7.66059" stroke="#85340A" stroke-width="0.132"/>
<path d="M10.7454 7.92239L9.14356 6.43842C9.14356 6.43842 9.11408 6.40907 9.0941 6.42773C9.07535 6.44935 9.10483 6.47871 9.10483 6.47871L10.5892 8.08059M10.3136 7.35656C10.2103 7.07376 9.97514 6.99105 9.89297 6.73414C9.81253 6.47305 9.61898 6.39043 9.54309 6.30756C9.47312 6.22225 9.51489 6.13913 9.48216 6.13537C9.44647 6.13284 9.41918 6.2342 9.49448 6.3658C9.5715 6.49322 9.69212 6.49175 9.7946 6.80606C9.89709 7.12037 10.0743 7.13009 10.1527 7.41973" fill="#F6B40E"/>
<path d="M10.7454 7.92239L9.14356 6.43842C9.14356 6.43842 9.11408 6.40907 9.0941 6.42773C9.07535 6.44935 9.10483 6.47871 9.10483 6.47871L10.5892 8.08059M10.3136 7.35656C10.2103 7.07376 9.97514 6.99105 9.89297 6.73414C9.81253 6.47305 9.61898 6.39043 9.54309 6.30756C9.47312 6.22225 9.51489 6.13913 9.48216 6.13537C9.44647 6.13284 9.41918 6.2342 9.49448 6.3658C9.5715 6.49322 9.69212 6.49175 9.7946 6.80606C9.89709 7.12037 10.0743 7.13009 10.1527 7.41973" stroke="#85340A" stroke-width="0.132"/>
<path d="M9.88591 8.13761C9.59791 8.15361 9.46991 8.31681 9.20431 8.28481C9.41231 8.35521 9.57551 8.18561 9.88271 8.19521M10.6443 7.94881L9.28111 8.57281L10.6859 8.05121" fill="#85340A"/>
<path d="M9.89269 7.82833C9.62049 7.7329 9.43977 7.8347 9.20664 7.70349C9.37186 7.84813 9.58754 7.7539 9.86769 7.88033M10.6656 7.94413L9.16738 7.99896L10.6649 8.05466" fill="#85340A"/>
<path d="M10.0173 7.5452C9.80234 7.35287 9.59643 7.37776 9.43125 7.16732C9.52855 7.36418 9.76388 7.35966 9.97431 7.58367M10.6871 7.94797L9.28191 7.42528L10.6441 8.04979" fill="#85340A"/>
<path d="M10.2407 7.3313C10.1157 7.07135 9.91598 7.01554 9.84391 6.75791C9.85846 6.97702 10.0776 7.0629 10.1863 7.35039M10.7054 7.95972L9.60722 6.93908L10.6267 8.03734" fill="#85340A"/>
<path d="M10.769 7.9584L9.85704 5.9744C9.85704 5.9744 9.84104 5.936 9.81544 5.9456C9.78984 5.9584 9.80584 5.9968 9.80584 5.9968L10.5642 8.0448M10.5866 7.2704C10.5994 6.9696 10.4138 6.8032 10.4362 6.5344C10.4618 6.2624 10.3146 6.112 10.2762 6.0064C10.2442 5.9008 10.3146 5.84 10.2858 5.824C10.2538 5.808 10.1898 5.8912 10.209 6.0416C10.2314 6.1888 10.3434 6.2336 10.3178 6.5632C10.2922 6.8928 10.4522 6.9696 10.4138 7.2672" fill="#F6B40E"/>
<path d="M10.769 7.9584L9.85704 5.9744C9.85704 5.9744 9.84104 5.936 9.81544 5.9456C9.78984 5.9584 9.80584 5.9968 9.80584 5.9968L10.5642 8.0448M10.5866 7.2704C10.5994 6.9696 10.4138 6.8032 10.4362 6.5344C10.4618 6.2624 10.3146 6.112 10.2762 6.0064C10.2442 5.9008 10.3146 5.84 10.2858 5.824C10.2538 5.808 10.1898 5.8912 10.209 6.0416C10.2314 6.1888 10.3434 6.2336 10.3178 6.5632C10.2922 6.8928 10.4522 6.9696 10.4138 7.2672" stroke="#85340A" stroke-width="0.132"/>
<path d="M10.7772 8.00076L10.6939 5.81877C10.6939 5.81877 10.6938 5.77717 10.6665 5.77625C10.6379 5.77828 10.638 5.81988 10.638 5.81988L10.5549 8.00221M10.872 7.29533C10.9989 7.02232 10.8911 6.79756 11.0147 6.5578C11.1424 6.3163 11.064 6.12102 11.0689 6.00876C11.0798 5.89895 11.1681 5.86972 11.1476 5.84392C11.1241 5.81689 11.0332 5.86926 10.9934 6.01556C10.9577 6.16013 11.0441 6.24438 10.8943 6.5391C10.7445 6.83381 10.8629 6.96599 10.7136 7.22624" fill="#F6B40E"/>
<path d="M10.7772 8.00076L10.6939 5.81877C10.6939 5.81877 10.6938 5.77717 10.6665 5.77625C10.6379 5.77828 10.638 5.81988 10.638 5.81988L10.5549 8.00221M10.872 7.29533C10.9989 7.02232 10.8911 6.79756 11.0147 6.5578C11.1424 6.3163 11.064 6.12102 11.0689 6.00876C11.0798 5.89895 11.1681 5.86972 11.1476 5.84392C11.1241 5.81689 11.0332 5.86926 10.9934 6.01556C10.9577 6.16013 11.0441 6.24438 10.8943 6.5391C10.7445 6.83381 10.8629 6.96599 10.7136 7.22624" stroke="#85340A" stroke-width="0.132"/>
<path d="M10.7685 8.043L11.5265 5.99522C11.5265 5.99522 11.5423 5.95675 11.5175 5.94544C11.4903 5.93639 11.4745 5.97486 11.4745 5.97486L10.5626 7.95928M11.126 7.42754C11.3478 7.22389 11.3342 6.97499 11.5401 6.80076C11.7505 6.62653 11.7528 6.41609 11.8003 6.31427C11.8523 6.21697 11.9451 6.22376 11.9361 6.19208C11.9248 6.15814 11.8207 6.17171 11.7279 6.29164C11.6396 6.41156 11.6872 6.52244 11.436 6.7374C11.1848 6.95236 11.2437 7.1198 11.0061 7.30309" fill="#F6B40E"/>
<path d="M10.7685 8.043L11.5265 5.99522C11.5265 5.99522 11.5423 5.95675 11.5175 5.94544C11.4903 5.93639 11.4745 5.97486 11.4745 5.97486L10.5626 7.95928M11.126 7.42754C11.3478 7.22389 11.3342 6.97499 11.5401 6.80076C11.7505 6.62653 11.7528 6.41609 11.8003 6.31427C11.8523 6.21697 11.9451 6.22376 11.9361 6.19208C11.9248 6.15814 11.8207 6.17171 11.7279 6.29164C11.6396 6.41156 11.6872 6.52244 11.436 6.7374C11.1848 6.95236 11.2437 7.1198 11.0061 7.30309" stroke="#85340A" stroke-width="0.132"/>
<path d="M10.7443 8.07869L12.2283 6.47687C12.2283 6.47687 12.2576 6.44739 12.239 6.42741C12.2173 6.40866 12.188 6.43814 12.188 6.43814L10.5861 7.92254M11.3101 7.64689C11.5929 7.5436 11.6756 7.30845 11.9326 7.22628C12.1937 7.14584 12.2763 6.95229 12.3591 6.87641C12.4445 6.80643 12.5276 6.8482 12.5313 6.81547C12.5339 6.77979 12.4325 6.7525 12.3009 6.82779C12.1735 6.90482 12.1749 7.02544 11.8606 7.12792C11.5463 7.2304 11.5366 7.40761 11.247 7.48602" fill="#F6B40E"/>
<path d="M10.7443 8.07869L12.2283 6.47687C12.2283 6.47687 12.2576 6.44739 12.239 6.42741C12.2173 6.40866 12.188 6.43814 12.188 6.43814L10.5861 7.92254M11.3101 7.64689C11.5929 7.5436 11.6756 7.30845 11.9326 7.22628C12.1937 7.14584 12.2763 6.95229 12.3591 6.87641C12.4445 6.80643 12.5276 6.8482 12.5313 6.81547C12.5339 6.77979 12.4325 6.7525 12.3009 6.82779C12.1735 6.90482 12.1749 7.02544 11.8606 7.12792C11.5463 7.2304 11.5366 7.40761 11.247 7.48602" stroke="#85340A" stroke-width="0.132"/>
<path d="M10.5291 7.21921C10.5131 6.93121 10.3499 6.80321 10.3819 6.53761C10.3115 6.74561 10.4811 6.90881 10.4715 7.21601M10.7179 7.97761L10.0939 6.61441L10.6155 8.01921" fill="#85340A"/>
<path d="M10.8383 7.22598C10.9338 6.95378 10.832 6.77307 10.9632 6.53994C10.8185 6.70516 10.9128 6.92084 10.7863 7.20098M10.7225 7.9989L10.6677 6.50068L10.612 7.99815" fill="#85340A"/>
<path d="M11.1215 7.3506C11.3138 7.13564 11.2889 6.92973 11.4993 6.76455C11.3025 6.86185 11.307 7.09717 11.083 7.30761M10.7187 8.02037L11.2414 6.61521L10.6169 7.97738" fill="#85340A"/>
<path d="M11.3354 7.57408C11.5953 7.44909 11.6511 7.24933 11.9088 7.17725C11.6896 7.19181 11.6038 7.41095 11.3163 7.51964M10.707 8.03874L11.7276 6.94056L10.6293 7.96005" fill="#85340A"/>
<path d="M10.7083 8.10239L12.6923 7.19039C12.6923 7.19039 12.7307 7.17439 12.7211 7.14879C12.7083 7.12319 12.6699 7.13919 12.6699 7.13919L10.6219 7.89759M11.3963 7.91999C11.6971 7.93279 11.8635 7.74719 12.1323 7.76959C12.4043 7.79519 12.5547 7.64799 12.6603 7.60959C12.7659 7.57759 12.8267 7.64799 12.8427 7.61919C12.8587 7.58719 12.7755 7.52319 12.6251 7.54239C12.4779 7.56479 12.4331 7.67679 12.1035 7.65119C11.7739 7.62559 11.6971 7.78559 11.3995 7.74719" fill="#F6B40E"/>
<path d="M10.7083 8.10239L12.6923 7.19039C12.6923 7.19039 12.7307 7.17439 12.7211 7.14879C12.7083 7.12319 12.6699 7.13919 12.6699 7.13919L10.6219 7.89759M11.3963 7.91999C11.6971 7.93279 11.8635 7.74719 12.1323 7.76959C12.4043 7.79519 12.5547 7.64799 12.6603 7.60959C12.7659 7.57759 12.8267 7.64799 12.8427 7.61919C12.8587 7.58719 12.7755 7.52319 12.6251 7.54239C12.4779 7.56479 12.4331 7.67679 12.1035 7.65119C11.7739 7.62559 11.6971 7.78559 11.3995 7.74719" stroke="#85340A" stroke-width="0.132"/>
<path d="M10.6659 8.11052L12.8479 8.02718C12.8479 8.02718 12.8895 8.0271 12.8905 7.99977C12.8884 7.97122 12.8468 7.97131 12.8468 7.97131L10.6645 7.88824M11.3714 8.20529C11.6444 8.33222 11.8691 8.22443 12.1089 8.34799C12.3504 8.47573 12.5457 8.39729 12.6579 8.40223C12.7678 8.41307 12.797 8.50138 12.8228 8.4809C12.8498 8.45746 12.7974 8.36649 12.6511 8.32667C12.5066 8.29104 12.4223 8.37737 12.1276 8.22758C11.8329 8.0778 11.7007 8.19623 11.4405 8.04687" fill="#F6B40E"/>
<path d="M10.6659 8.11052L12.8479 8.02718C12.8479 8.02718 12.8895 8.0271 12.8905 7.99977C12.8884 7.97122 12.8468 7.97131 12.8468 7.97131L10.6645 7.88824M11.3714 8.20529C11.6444 8.33222 11.8691 8.22443 12.1089 8.34799C12.3504 8.47573 12.5457 8.39729 12.6579 8.40223C12.7678 8.41307 12.797 8.50138 12.8228 8.4809C12.8498 8.45746 12.7974 8.36649 12.6511 8.32667C12.5066 8.29104 12.4223 8.37737 12.1276 8.22758C11.8329 8.0778 11.7007 8.19623 11.4405 8.04687" stroke="#85340A" stroke-width="0.132"/>
<path d="M10.6237 8.10182L12.6715 8.85984C12.6715 8.85984 12.71 8.87568 12.7213 8.85079C12.7303 8.82363 12.6919 8.80779 12.6919 8.80779L10.7074 7.89591M11.2392 8.45933C11.4428 8.68108 11.6917 8.6675 11.866 8.87341C12.0402 9.08385 12.2506 9.08611 12.3525 9.13363C12.4497 9.18567 12.443 9.27845 12.4746 9.26939C12.5086 9.25808 12.495 9.15399 12.3751 9.06122C12.2552 8.97298 12.1443 9.02049 11.9293 8.76933C11.7144 8.51816 11.5469 8.57699 11.3636 8.33941" fill="#F6B40E"/>
<path d="M10.6237 8.10182L12.6715 8.85984C12.6715 8.85984 12.71 8.87568 12.7213 8.85079C12.7303 8.82363 12.6919 8.80779 12.6919 8.80779L10.7074 7.89591M11.2392 8.45933C11.4428 8.68108 11.6917 8.6675 11.866 8.87341C12.0402 9.08385 12.2506 9.08611 12.3525 9.13363C12.4497 9.18567 12.443 9.27844 12.4746 9.26939C12.5086 9.25808 12.495 9.15399 12.3751 9.06122C12.2552 8.97298 12.1443 9.02049 11.9293 8.76933C11.7144 8.51816 11.5469 8.577 11.3636 8.33941" stroke="#85340A" stroke-width="0.132"/>
<path d="M10.588 8.07761L12.1898 9.56158C12.1898 9.56158 12.2193 9.59093 12.2393 9.57227C12.258 9.55065 12.2285 9.52129 12.2285 9.52129L10.7441 7.91941M11.0198 8.64344C11.1231 8.92624 11.3582 9.00895 11.4404 9.26586C11.5208 9.52695 11.7144 9.60957 11.7903 9.69244C11.8603 9.77775 11.8185 9.86087 11.8512 9.86463C11.8869 9.86716 11.9142 9.7658 11.8389 9.6342C11.7619 9.50678 11.6413 9.50825 11.5388 9.19394C11.4363 8.87963 11.2591 8.86991 11.1807 8.58027" fill="#F6B40E"/>
<path d="M10.588 8.07761L12.1898 9.56158C12.1898 9.56158 12.2193 9.59093 12.2393 9.57227C12.258 9.55065 12.2285 9.52129 12.2285 9.52129L10.7441 7.91941M11.0198 8.64344C11.1231 8.92624 11.3582 9.00895 11.4404 9.26586C11.5208 9.52695 11.7144 9.60957 11.7903 9.69244C11.8603 9.77775 11.8185 9.86087 11.8512 9.86463C11.8869 9.86716 11.9142 9.7658 11.8389 9.6342C11.7619 9.50678 11.6413 9.50825 11.5388 9.19394C11.4363 8.87963 11.2591 8.86991 11.1807 8.58027" stroke="#85340A" stroke-width="0.132"/>
<path d="M11.4475 7.86239C11.7355 7.84639 11.8635 7.68319 12.1291 7.71519C11.9211 7.64479 11.7579 7.81439 11.4507 7.80479M10.6891 8.05119L12.0523 7.42719L10.6475 7.94879" fill="#85340A"/>
<path d="M11.4407 8.17167C11.7129 8.2671 11.8936 8.1653 12.1267 8.29651C11.9615 8.15187 11.7458 8.2461 11.4657 8.11967M10.6678 8.05587L12.166 8.00104L10.6685 7.94534" fill="#85340A"/>
<path d="M11.3161 8.4548C11.531 8.64713 11.7369 8.62224 11.9021 8.83268C11.8048 8.63582 11.5695 8.64034 11.3591 8.41633M10.6463 8.05203L12.0515 8.57472L10.6893 7.95021" fill="#85340A"/>
<path d="M11.0926 8.6687C11.2176 8.92865 11.4174 8.98446 11.4895 9.24209C11.4749 9.02298 11.2558 8.9371 11.1471 8.64961M10.628 8.04028L11.7262 9.06092L10.7067 7.96266" fill="#85340A"/>
<path d="M10.6667 8.89C11.1582 8.89 11.5567 8.49153 11.5567 8C11.5567 7.50847 11.1582 7.11 10.6667 7.11C10.1751 7.11 9.77667 7.50847 9.77667 8C9.77667 8.49153 10.1751 8.89 10.6667 8.89Z" fill="#F6B40E" stroke="#85340A" stroke-width="0.175"/>
<path d="M10.9667 7.81C10.91 7.81 10.85 7.83666 10.8167 7.89C10.8833 7.95333 11.0367 7.95666 11.14 7.88333C11.1182 7.86016 11.0918 7.84169 11.0626 7.82908C11.0333 7.81647 11.0018 7.80998 10.97 7.81H10.9667ZM10.9667 7.82333C11.0267 7.82333 11.0833 7.85 11.09 7.87666C11.0233 7.95333 10.9133 7.94333 10.8433 7.89C10.8766 7.84333 10.9233 7.82333 10.97 7.82333H10.9667Z" fill="#843511"/>
<path d="M10.98 7.76666C10.89 7.76666 10.87 7.78666 10.83 7.82333C10.79 7.85666 10.7666 7.85 10.7633 7.85666C10.7533 7.86333 10.7633 7.88333 10.7733 7.87666C10.79 7.87 10.8166 7.85666 10.8566 7.82333C10.8966 7.79 10.94 7.79 10.98 7.79C11.1033 7.79 11.17 7.89 11.1833 7.88333C11.2 7.87666 11.1166 7.76666 10.98 7.76666Z" fill="#85340A"/>
<path d="M11.2267 7.80999C11.07 7.67333 10.87 7.64999 10.76 7.75333C10.7347 7.78666 10.7176 7.82548 10.71 7.86666C10.6967 7.94666 10.72 8.02999 10.78 8.11666L10.7534 8.12999C10.7 8.02666 10.68 7.91999 10.7 7.81666L10.72 7.73999C10.87 7.61666 11.0767 7.60666 11.2267 7.80666V7.80999Z" fill="#85340A"/>
<path d="M10.9667 7.93667C10.9998 7.93667 11.0267 7.9098 11.0267 7.87667C11.0267 7.84353 10.9998 7.81667 10.9667 7.81667C10.9335 7.81667 10.9067 7.84353 10.9067 7.87667C10.9067 7.9098 10.9335 7.93667 10.9667 7.93667Z" fill="#85340A"/>
<path d="M11.1433 7.91667C11.0266 8.00667 10.91 8 10.8433 7.96C10.7766 7.91667 10.7766 7.90334 10.79 7.90334C10.8033 7.90334 10.8166 7.91667 10.87 7.94667C10.9266 7.97334 11.0066 7.97334 11.1433 7.91667Z" fill="#85340A"/>
<path d="M10.5333 8.12334C10.5241 8.12552 10.5155 8.12988 10.5082 8.13605C10.501 8.14222 10.4953 8.15003 10.4917 8.15883C10.488 8.16762 10.4866 8.17715 10.4873 8.18664C10.4881 8.19612 10.4911 8.20529 10.4961 8.21337C10.5012 8.22146 10.508 8.22823 10.5162 8.23314C10.5243 8.23805 10.5335 8.24094 10.543 8.24159C10.5525 8.24224 10.562 8.24062 10.5708 8.23687C10.5795 8.23311 10.5873 8.22733 10.5933 8.22C10.6153 8.23364 10.6408 8.24059 10.6667 8.24H10.6733C10.6933 8.24 10.7267 8.23667 10.75 8.22C10.76 8.23667 10.78 8.24334 10.8 8.24334C10.8159 8.24466 10.8317 8.23961 10.8439 8.2293C10.8561 8.21898 10.8637 8.20425 10.865 8.18834C10.8663 8.17242 10.8613 8.15664 10.851 8.14445C10.8406 8.13226 10.8259 8.12466 10.81 8.12334C10.8267 8.13 10.8367 8.14334 10.8367 8.16334C10.8367 8.17395 10.8325 8.18412 10.825 8.19162C10.8175 8.19912 10.8073 8.20334 10.7967 8.20334C10.7861 8.20334 10.7759 8.19912 10.7684 8.19162C10.7609 8.18412 10.7567 8.17395 10.7567 8.16334C10.7488 8.17979 10.7365 8.19377 10.7212 8.20376C10.706 8.21375 10.6882 8.21937 10.67 8.22C10.6523 8.21878 10.6353 8.21289 10.6207 8.20293C10.606 8.19298 10.5943 8.17931 10.5867 8.16334C10.5867 8.18667 10.5667 8.20334 10.5433 8.20334C10.5233 8.20334 10.5033 8.18334 10.5033 8.16334C10.5033 8.14334 10.5133 8.13 10.53 8.12334H10.5333ZM10.6 8.30334C10.53 8.30334 10.5 8.37 10.44 8.40667C10.4733 8.39334 10.5 8.36667 10.55 8.34C10.5967 8.31334 10.6367 8.34667 10.6667 8.34667C10.6933 8.34667 10.7333 8.31334 10.7833 8.34C10.83 8.36667 10.86 8.39334 10.8933 8.40667C10.83 8.36667 10.8033 8.30667 10.7333 8.30667C10.72 8.30667 10.6933 8.31334 10.6667 8.32667L10.6 8.30334Z" fill="#85340A"/>
<path d="M10.5734 8.38667C10.5467 8.38667 10.5134 8.39334 10.46 8.40667C10.5834 8.38 10.61 8.42334 10.6667 8.42334C10.72 8.42334 10.75 8.38 10.87 8.40667C10.7367 8.36667 10.7067 8.39334 10.6667 8.39334C10.64 8.39334 10.62 8.38334 10.5734 8.38667Z" fill="#85340A"/>
<path d="M10.4667 8.40667H10.44C10.5833 8.42333 10.5167 8.50667 10.6667 8.50667C10.8167 8.50667 10.75 8.42333 10.8933 8.40667C10.7433 8.39333 10.79 8.48333 10.6667 8.48333C10.55 8.48333 10.5867 8.40667 10.4667 8.40667Z" fill="#85340A"/>
<path d="M10.79 8.63C10.79 8.59729 10.777 8.56592 10.7539 8.54279C10.7307 8.51966 10.6994 8.50667 10.6667 8.50667C10.634 8.50667 10.6026 8.51966 10.5795 8.54279C10.5563 8.56592 10.5433 8.59729 10.5433 8.63C10.5498 8.60218 10.5656 8.57737 10.588 8.55962C10.6104 8.54186 10.6381 8.5322 10.6667 8.5322C10.6952 8.5322 10.723 8.54186 10.7454 8.55962C10.7678 8.57737 10.7835 8.60218 10.79 8.63Z" fill="#85340A"/>
<path d="M10.1133 7.80999C10.27 7.67333 10.47 7.64999 10.58 7.75333C10.6053 7.78666 10.6225 7.82548 10.63 7.86666C10.6433 7.94666 10.62 8.02999 10.56 8.11666L10.5867 8.12999C10.64 8.02666 10.66 7.91999 10.64 7.81666L10.62 7.73999C10.47 7.61666 10.2633 7.60666 10.1133 7.80666V7.80999Z" fill="#85340A"/>
<path d="M10.36 7.76666C10.45 7.76666 10.47 7.78666 10.51 7.82333C10.55 7.85666 10.5733 7.85 10.5767 7.85666C10.5867 7.86333 10.5767 7.88333 10.5667 7.87666C10.55 7.87 10.5233 7.85666 10.4833 7.82333C10.4433 7.79 10.4 7.79 10.36 7.79C10.2367 7.79 10.17 7.89 10.1567 7.88333C10.14 7.87666 10.2233 7.76666 10.36 7.76666Z" fill="#85340A"/>
<path d="M10.3533 7.81C10.2966 7.81 10.2366 7.83666 10.2033 7.89C10.27 7.95333 10.4233 7.95666 10.5266 7.88333C10.5048 7.86016 10.4785 7.84169 10.4492 7.82908C10.42 7.81647 10.3885 7.80998 10.3566 7.81H10.3533ZM10.3533 7.82333C10.4133 7.82333 10.47 7.85 10.4766 7.87666C10.41 7.95333 10.3 7.94333 10.23 7.89C10.2633 7.84333 10.31 7.82333 10.3566 7.82333H10.3533Z" fill="#843511"/>
<path d="M10.3633 7.93667C10.3965 7.93667 10.4233 7.9098 10.4233 7.87667C10.4233 7.84353 10.3965 7.81667 10.3633 7.81667C10.3302 7.81667 10.3033 7.84353 10.3033 7.87667C10.3033 7.9098 10.3302 7.93667 10.3633 7.93667Z" fill="#85340A"/>
<path d="M10.1967 7.91667C10.3133 8.00667 10.43 8 10.4967 7.96C10.5633 7.91667 10.5633 7.90334 10.55 7.90334C10.5367 7.90334 10.5233 7.91667 10.47 7.94667C10.4133 7.97334 10.3333 7.97334 10.1967 7.91667Z" fill="#85340A"/>
</g>
<defs>
<clipPath id="clip0_39_3532">
<rect width="21.3333" height="16" fill="white"/>
</clipPath>
</defs>
</svg>
