<svg width="22" height="16" viewBox="0 0 22 16" fill="none" xmlns="http://www.w3.org/2000/svg">
<g clip-path="url(#clip0_39_3531)">
<path fill-rule="evenodd" clip-rule="evenodd" d="M0 0H21.3333V16H0V0Z" fill="#229E45"/>
<path fill-rule="evenodd" clip-rule="evenodd" d="M10.7133 14.5333L20.7633 8.00999L10.6533 1.46666L0.570007 8.02333L10.7133 14.5333Z" fill="#F8E509"/>
<path fill-rule="evenodd" clip-rule="evenodd" d="M15.0933 8C15.0933 10.3433 13.19 12.2433 10.84 12.2433C10.0002 12.242 9.17968 11.9917 8.48213 11.5242C7.78457 11.0566 7.24131 10.3927 6.92101 9.61641C6.60071 8.84012 6.51775 7.9863 6.68264 7.16287C6.84752 6.33945 7.25283 5.5834 7.84733 4.99029C8.44184 4.39718 9.19884 3.99365 10.0227 3.83071C10.8465 3.66777 11.7001 3.75273 12.4756 4.07486C13.2511 4.39698 13.9138 4.94181 14.3797 5.64046C14.8456 6.33912 15.094 7.16023 15.0933 8Z" fill="#2B49A3"/>
<path fill-rule="evenodd" clip-rule="evenodd" d="M9.44335 10.5433L9.31002 10.4667L9.17668 10.5333L9.20668 10.3833L9.10002 10.27L9.25002 10.2533L9.32335 10.12L9.38668 10.26L9.53335 10.2867L9.42335 10.3867M12.29 11.2633L12.16 11.1867L12.0267 11.2533L12.0534 11.1033L11.95 10.9933L12.1 10.9767L12.17 10.84L12.2367 10.98L12.3834 11.0067L12.27 11.11M11.0634 10.11L10.95 10.0433L10.8334 10.1033L10.86 9.97334L10.7667 9.87667L10.9 9.86334L10.96 9.74334L11.0134 9.86667L11.1434 9.89001L11.0434 9.98001M13.9434 9.69667L13.83 9.63001L13.7134 9.69001L13.74 9.56001L13.65 9.46667L13.78 9.45334L13.84 9.33667L13.8934 9.45667L14.02 9.48001L13.9234 9.56667M11.0134 8.83334L10.88 8.76001L10.7467 8.82667L10.7734 8.67334L10.67 8.56334L10.82 8.54667L10.89 8.41001L10.9567 8.55001L11.1034 8.57667L10.99 8.68334M7.50335 7.51667L7.37002 7.44334L7.23668 7.51001L7.27002 7.35667L7.16002 7.24667L7.31335 7.23001L7.38002 7.09334L7.44668 7.23334L7.59335 7.26001L7.48335 7.36334M7.92668 9.27001L7.79335 9.19334L7.66002 9.26001L7.69002 9.11001L7.58335 9.00001L7.73335 8.98001L7.80335 8.84667L7.87002 8.98667L8.01668 9.01334L7.90668 9.11667M12.3067 6.87334L12.1867 6.80667L12.0667 6.86667L12.0934 6.73334L12 6.63334L12.1334 6.61667L12.1967 6.49667L12.2534 6.62334L12.3867 6.64667L12.2867 6.73667M12.0634 8.01334L11.9734 7.96001L11.8767 8.00667L11.8967 7.90001L11.8234 7.82334L11.93 7.81001L11.98 7.71667L12.0234 7.81667L12.1234 7.83334L12.05 7.90667M7.31002 9.58667L7.22002 9.53667L7.13002 9.58001L7.15002 9.48001L7.08002 9.40667L7.18002 9.39334L7.22668 9.30334L7.27002 9.39667L7.37002 9.41667L7.29335 9.48334M13.9667 9.99334L13.8934 9.95667L13.82 9.99001L13.8367 9.91334L13.78 9.86001L13.86 9.85001L13.9 9.78334L13.9334 9.85001L14.0167 9.86667L13.9534 9.91667" fill="#FFFFEF"/>
<path fill-rule="evenodd" clip-rule="evenodd" d="M7.31002 9.58666L7.22002 9.53666L7.13002 9.58L7.15002 9.48L7.08002 9.40666L7.18002 9.39333L7.22668 9.30333L7.27002 9.39666L7.37002 9.41666L7.29335 9.48333" fill="#FFFFEF"/>
<path fill-rule="evenodd" clip-rule="evenodd" d="M7.31002 9.58667L7.22002 9.53667L7.13002 9.58001L7.15002 9.48001L7.08002 9.40667L7.18002 9.39334L7.22668 9.30334L7.27002 9.39667L7.37002 9.41667L7.29335 9.48334M8.70335 9.58334L8.61668 9.53667L8.52668 9.58001L8.54668 9.48001L8.47668 9.40667L8.57668 9.39334L8.62335 9.30334L8.66668 9.39667L8.76668 9.41334L8.69002 9.48334M8.53002 10.05L8.44335 10L8.35335 10.0467L8.37335 9.94667L8.30335 9.87001L8.40335 9.85667L8.45002 9.76667L8.49335 9.86001L8.59335 9.88001L8.51668 9.94667M11.43 9.20667L11.3434 9.15334L11.25 9.20001L11.27 9.10001L11.2034 9.02334L11.3034 9.01334L11.35 8.92334L11.39 9.01667L11.49 9.03334L11.4167 9.10334M10.58 9.20334L10.49 9.15334L10.4 9.20001L10.42 9.10001L10.3534 9.02334L10.4534 9.01334L10.5 8.92001L10.54 9.01667L10.64 9.03334L10.5667 9.10334M8.27335 8.91001L8.21668 8.87667L8.16002 8.90334L8.17335 8.84001L8.13002 8.79334L8.19335 8.78667L8.22002 8.73001L8.24668 8.79001L8.31002 8.80001L8.26335 8.84334M13.8567 10.3567L13.77 10.3067L13.68 10.3533L13.7 10.2533L13.63 10.1767L13.73 10.1633L13.7767 10.0733L13.82 10.1667L13.92 10.1867L13.8434 10.2533M13.15 10.4533L13.0767 10.4067L13 10.4467L13.0167 10.36L12.96 10.3L13.0434 10.29L13.0834 10.2133L13.1167 10.2933L13.2 10.3067L13.1367 10.3667M13.4834 10.4433L13.4167 10.4033L13.3467 10.4367L13.36 10.36L13.3067 10.3033L13.3834 10.2933L13.42 10.2267L13.4534 10.2933L13.53 10.31L13.4734 10.3633M14.4434 9.60334L14.3767 9.57001L14.31 9.60334L14.3267 9.52667L14.2734 9.47001L14.35 9.46001L14.3834 9.39334L14.4167 9.46334L14.4867 9.47667L14.4334 9.53001M13.14 10.9233L13.0567 10.8767L12.9667 10.9167L12.9867 10.8233L12.92 10.7567L13.02 10.7467L13.0634 10.6633L13.1034 10.75L13.2034 10.7667L13.1267 10.83M13.1467 11.3033L13.0667 11.2567L12.9867 11.3L13.0067 11.2067L12.9434 11.14L13.0334 11.1267L13.0734 11.0433L13.11 11.13L13.2 11.1467L13.1334 11.2133M12.5 10.4433L12.4367 10.4033L12.37 10.4367L12.3834 10.3633L12.3334 10.3067L12.4067 10.3L12.44 10.2333L12.4734 10.3L12.5467 10.3133L12.4934 10.3667M11.9 10.4433L11.8334 10.4033L11.7667 10.4367L11.7834 10.3633L11.73 10.3067L11.8067 10.3L11.84 10.2333L11.8734 10.3L11.9434 10.3133L11.89 10.3667M10.8767 9.54667L10.81 9.51001L10.7434 9.54334L10.76 9.46667L10.7067 9.41334L10.78 9.40334L10.8134 9.33667L10.8467 9.40334L10.92 9.42001L10.8667 9.47001M10.99 11.37L10.9367 11.34L10.8767 11.37L10.89 11.3033L10.8467 11.2567L10.91 11.25L10.94 11.1933L10.9667 11.2533L11.03 11.2633L10.9834 11.3067M9.44335 8.42001L9.31002 8.34334L9.17668 8.41001L9.20668 8.26001L9.10002 8.15001L9.25002 8.13001L9.32335 7.99667L9.38668 8.13667L9.53335 8.16334L9.42335 8.26667" fill="#FFFFEF"/>
<path fill-rule="evenodd" clip-rule="evenodd" d="M14.8133 9.52667C14.8959 9.3124 14.9606 9.09164 15.0067 8.86667C12.7467 6.88334 10.23 5.86667 7.05 6.07667C6.93466 6.29984 6.83983 6.53302 6.76666 6.77334C10.5333 6.41334 13.3 8.08001 14.8133 9.52667Z" fill="white"/>
<path d="M13.8 8.41333L13.8766 8.45666C13.8652 8.4793 13.8617 8.50512 13.8666 8.53C13.8745 8.55412 13.8911 8.57437 13.9133 8.58666C13.9366 8.60333 13.96 8.61333 13.98 8.61C14 8.61 14.0133 8.6 14.0233 8.58666C14.0291 8.57781 14.0315 8.56714 14.03 8.55666C14.0273 8.54435 14.0215 8.5329 14.0133 8.52333C14.0066 8.51333 13.99 8.49 13.9633 8.46333C13.9359 8.43504 13.9154 8.40083 13.9033 8.36333C13.895 8.33495 13.8972 8.30453 13.9094 8.27761C13.9216 8.25069 13.9431 8.22906 13.97 8.21666C13.9942 8.20654 14.021 8.20421 14.0466 8.21C14.078 8.21722 14.1075 8.23083 14.1333 8.25C14.18 8.28333 14.21 8.31666 14.22 8.35666C14.2246 8.37537 14.2252 8.39485 14.2217 8.4138C14.2183 8.43276 14.2109 8.45077 14.2 8.46666L14.12 8.41666C14.13 8.39666 14.1333 8.37666 14.1266 8.36C14.1233 8.34333 14.11 8.32666 14.0866 8.31333C14.0695 8.29956 14.0486 8.29141 14.0266 8.29C14.0206 8.28979 14.0146 8.29124 14.0093 8.29417C14.0041 8.29711 13.9997 8.30143 13.9966 8.30666C13.99 8.31666 13.99 8.32666 13.9933 8.34C13.9966 8.35333 14.0133 8.38 14.0466 8.41333C14.08 8.44666 14.1 8.47666 14.1133 8.49666C14.1252 8.51851 14.1306 8.54331 14.1288 8.56813C14.1271 8.59295 14.1182 8.61673 14.1033 8.63666C14.0877 8.65932 14.0656 8.67675 14.04 8.68666C14.015 8.69817 13.987 8.70167 13.96 8.69666C13.93 8.69 13.9 8.67666 13.8666 8.65333C13.8166 8.62 13.7866 8.58333 13.7766 8.54333C13.7658 8.49797 13.773 8.45017 13.7966 8.41L13.8 8.41333ZM13.4133 8.16L13.4966 8.20333C13.4863 8.22635 13.484 8.25216 13.49 8.27666C13.4985 8.29954 13.5151 8.31851 13.5366 8.33C13.5633 8.34666 13.5833 8.35333 13.6033 8.35C13.6233 8.35 13.6366 8.34 13.6466 8.32333C13.6517 8.3154 13.654 8.30604 13.6533 8.29666C13.6533 8.28666 13.6466 8.27333 13.6366 8.26333C13.6196 8.24272 13.6018 8.22271 13.5833 8.20333C13.5466 8.16666 13.5233 8.13666 13.5166 8.11C13.5112 8.09284 13.5096 8.0747 13.5119 8.05685C13.5142 8.039 13.5204 8.02187 13.53 8.00666C13.5427 7.98609 13.5612 7.96983 13.5833 7.96C13.6062 7.94944 13.6318 7.94596 13.6566 7.95C13.6875 7.95519 13.717 7.96652 13.7433 7.98333C13.7933 8.01666 13.8233 8.05 13.8333 8.08666C13.8394 8.1054 13.8413 8.12523 13.839 8.14479C13.8367 8.16435 13.8302 8.18318 13.82 8.2L13.7366 8.15333C13.7466 8.13 13.75 8.11333 13.7433 8.09666C13.7366 8.08 13.7233 8.06333 13.7 8.05C13.6815 8.03676 13.6594 8.02975 13.6366 8.03C13.6312 8.03037 13.6259 8.03208 13.6212 8.03499C13.6166 8.0379 13.6127 8.04191 13.61 8.04666C13.6033 8.05666 13.6033 8.06666 13.6066 8.08C13.61 8.09333 13.63 8.12 13.6633 8.15333C13.6966 8.18666 13.72 8.21333 13.73 8.23333C13.7433 8.25423 13.7504 8.27852 13.7504 8.30333C13.7504 8.32814 13.7433 8.35243 13.73 8.37333C13.7156 8.39658 13.6948 8.41512 13.67 8.42666C13.645 8.43817 13.617 8.44167 13.59 8.43666C13.5557 8.43086 13.5228 8.41841 13.4933 8.4C13.4502 8.37703 13.417 8.33909 13.4 8.29333C13.3871 8.24883 13.3919 8.20107 13.4133 8.16ZM12.94 8.03333L13.1833 7.63333L13.4766 7.81666L13.4366 7.88333L13.2233 7.75L13.17 7.84L13.37 7.96333L13.3266 8.03L13.1266 7.90666L13.06 8.01666L13.2833 8.15L13.2433 8.21666L12.94 8.03333ZM12.25 7.46666L12.2866 7.4L12.4666 7.49L12.3833 7.65666C12.3566 7.66333 12.3233 7.66666 12.2833 7.66333C12.2449 7.6591 12.2076 7.6478 12.1733 7.63C12.133 7.61034 12.0985 7.58046 12.0733 7.54333C12.0504 7.50883 12.0387 7.46807 12.04 7.42666C12.0417 7.38357 12.0531 7.34141 12.0733 7.30333C12.0933 7.26324 12.1231 7.22885 12.16 7.20333C12.1952 7.17897 12.2371 7.16615 12.28 7.16666C12.3133 7.16666 12.3466 7.17666 12.3866 7.2C12.44 7.22333 12.4733 7.25666 12.49 7.29333C12.5073 7.32973 12.5109 7.37118 12.5 7.41L12.41 7.38333C12.4155 7.361 12.4131 7.33746 12.4033 7.31666C12.3933 7.29666 12.3766 7.28333 12.35 7.27C12.3344 7.26113 12.3172 7.25565 12.2994 7.25392C12.2816 7.2522 12.2636 7.25427 12.2466 7.26C12.2133 7.27 12.1833 7.3 12.16 7.34666C12.1366 7.39333 12.1266 7.43666 12.1366 7.47333C12.1413 7.49072 12.1496 7.50689 12.1611 7.52071C12.1726 7.53453 12.187 7.54566 12.2033 7.55333C12.22 7.56333 12.24 7.57 12.26 7.57C12.2799 7.57301 12.3001 7.57301 12.32 7.57L12.3466 7.51666L12.25 7.46666ZM9.24331 6.72333L9.30998 6.25666L9.44998 6.28L9.48665 6.60666L9.61665 6.30666L9.75665 6.32666L9.68998 6.78666L9.59998 6.77333L9.65665 6.41L9.50998 6.76L9.41998 6.74666L9.38332 6.37L9.32998 6.73666L9.24331 6.72333ZM8.77332 6.66666L8.81665 6.2L9.15998 6.23333L9.15332 6.31333L8.90332 6.29L8.89331 6.39L9.12665 6.41333L9.11665 6.49333L8.88332 6.47L8.87332 6.59666L9.13332 6.62L9.12665 6.7L8.77332 6.66666Z" fill="#309E3A"/>
<path d="M7.21667 6.37667C7.21667 6.32667 7.22667 6.29001 7.24001 6.25667C7.25169 6.23297 7.26749 6.21152 7.28667 6.19334C7.30377 6.1761 7.32418 6.16249 7.34667 6.15334C7.38001 6.14334 7.41334 6.13667 7.44667 6.13667C7.51667 6.13667 7.57001 6.16334 7.61334 6.20334C7.63397 6.22882 7.64931 6.25816 7.65847 6.28964C7.66762 6.32112 7.67041 6.3541 7.66667 6.38667C7.66667 6.46001 7.64334 6.52001 7.60001 6.56334C7.57774 6.58392 7.5514 6.5996 7.52269 6.60936C7.49398 6.61912 7.46354 6.62275 7.43334 6.62001C7.40355 6.62031 7.374 6.61455 7.3465 6.60309C7.319 6.59163 7.29411 6.57471 7.27334 6.55334C7.23186 6.50425 7.21149 6.44073 7.21667 6.37667Z" fill="#309E3A"/>
<path d="M7.31335 6.37668C7.31335 6.42668 7.32335 6.46667 7.34669 6.49667C7.37002 6.52334 7.40002 6.54001 7.44002 6.54001C7.45733 6.54122 7.47468 6.53856 7.49083 6.53221C7.50697 6.52587 7.5215 6.51601 7.53335 6.50334C7.55669 6.47668 7.56669 6.43667 7.57002 6.38001C7.57002 6.32667 7.56335 6.28668 7.53669 6.26001C7.52583 6.24657 7.51212 6.23572 7.49656 6.22822C7.481 6.22073 7.46396 6.21678 7.44669 6.21668C7.42915 6.21611 7.41171 6.21941 7.39558 6.22632C7.37946 6.23323 7.36504 6.24359 7.35335 6.25667C7.32669 6.28334 7.31669 6.32334 7.31335 6.37668Z" fill="#F7FFFF"/>
<path d="M7.76666 6.61666L7.77333 6.14999H7.97333C8.02333 6.14999 8.05666 6.15666 8.08 6.16666C8.10333 6.17333 8.12 6.18999 8.13333 6.20999C8.14666 6.22999 8.15333 6.25666 8.15333 6.28666C8.15359 6.31873 8.14168 6.3497 8.12 6.37333C8.09535 6.39641 8.06364 6.4105 8.03 6.41333L8.08 6.45333C8.09333 6.46666 8.11 6.49333 8.13 6.52999L8.18666 6.62333H8.07333L8.00666 6.51666L7.96 6.44999C7.95191 6.44082 7.94157 6.43393 7.93 6.42999C7.91483 6.42557 7.89912 6.42333 7.88333 6.42333H7.86333V6.61666H7.76666Z" fill="#309E3A"/>
<path d="M7.86664 6.35H7.9333C7.97997 6.35 8.00997 6.35 8.01997 6.34333C8.02997 6.34333 8.03997 6.33333 8.04664 6.32666C8.0533 6.32 8.05664 6.30333 8.05664 6.29333C8.05664 6.27333 8.0533 6.26 8.0433 6.25333C8.03664 6.24333 8.0233 6.23666 8.00997 6.23333H7.9433L7.86664 6.23V6.35Z" fill="white"/>
<path d="M8.30001 6.17334L8.47334 6.18334C8.51001 6.18334 8.54001 6.18667 8.56001 6.19334C8.58595 6.20275 8.60895 6.21885 8.62667 6.24001C8.64587 6.26331 8.65955 6.29066 8.66667 6.32001C8.67667 6.35001 8.68001 6.38667 8.67667 6.43001C8.67664 6.46403 8.67101 6.49781 8.66001 6.53001C8.64667 6.56334 8.62667 6.59001 8.60334 6.61001C8.58392 6.62601 8.56113 6.6374 8.53667 6.64334C8.51667 6.65001 8.48667 6.65001 8.45334 6.65001L8.27667 6.64001L8.30001 6.17334Z" fill="#309E3A"/>
<path d="M8.39002 6.25667L8.37335 6.56667H8.50002C8.51669 6.56667 8.53002 6.56 8.54002 6.55C8.55002 6.54 8.56002 6.52667 8.56669 6.50667C8.57335 6.48667 8.58002 6.45667 8.58002 6.42L8.57669 6.33667C8.57193 6.31909 8.56275 6.30303 8.55002 6.29C8.53895 6.27887 8.52516 6.27082 8.51002 6.26667C8.48481 6.26106 8.45915 6.25771 8.43335 6.25667H8.39002Z" fill="white"/>
<path d="M10.5867 7.00666L10.6967 6.55333L10.8433 6.58666L10.95 6.62C10.9733 6.63333 10.9933 6.65333 11.0033 6.68333C11.0167 6.71 11.0167 6.74 11.01 6.77666C11.0033 6.80333 10.9933 6.82666 10.9767 6.84333C10.9644 6.85797 10.9491 6.86974 10.9319 6.8778C10.9146 6.88586 10.8957 6.89003 10.8767 6.89C10.8533 6.89 10.82 6.88333 10.7767 6.87333L10.72 6.85666L10.68 7.03L10.5867 7.00666Z" fill="#309E3A"/>
<path d="M10.7667 6.65334L10.74 6.78L10.79 6.79334C10.8233 6.8 10.85 6.80667 10.8633 6.80334C10.8763 6.80154 10.8884 6.79576 10.8979 6.78681C10.9075 6.77785 10.914 6.76616 10.9167 6.75334C10.9167 6.73667 10.9167 6.72334 10.91 6.71C10.9027 6.69645 10.8909 6.68585 10.8767 6.68L10.8133 6.66334L10.77 6.65334H10.7667Z" fill="white"/>
<path d="M11.02 7.13667L11.1767 6.69667L11.36 6.76334C11.41 6.78 11.44 6.79667 11.46 6.81C11.4767 6.82667 11.49 6.84334 11.4934 6.87C11.4967 6.89667 11.5 6.92 11.4934 6.94667C11.48 6.98 11.46 7.00334 11.4334 7.02C11.4067 7.03334 11.3734 7.03667 11.3334 7.03C11.3467 7.04667 11.36 7.06334 11.3667 7.08334L11.3934 7.17334L11.4134 7.27667L11.31 7.24L11.2767 7.12C11.2706 7.09287 11.2628 7.06614 11.2534 7.04C11.2489 7.02963 11.2421 7.02049 11.2334 7.01334C11.2267 7.00334 11.2134 6.99667 11.19 6.99L11.1734 6.98334L11.1067 7.17L11.02 7.13667Z" fill="#309E3A"/>
<path d="M11.2 6.91334L11.2634 6.93668C11.3067 6.95334 11.3334 6.96001 11.3467 6.96001C11.3567 6.96001 11.3667 6.96001 11.3767 6.95001C11.3867 6.94334 11.3934 6.93334 11.3967 6.92001C11.4034 6.90668 11.4034 6.89334 11.3967 6.88001C11.3918 6.86709 11.3823 6.85642 11.3701 6.85001L11.3034 6.82668L11.2367 6.80334L11.1967 6.91334H11.2Z" fill="white"/>
<path d="M11.5667 7.12C11.5781 7.08097 11.5974 7.04468 11.6233 7.01334C11.6402 6.99322 11.6605 6.97629 11.6833 6.96334C11.704 6.95166 11.7266 6.94376 11.75 6.94C11.7833 6.94 11.8167 6.94 11.8533 6.95334C11.8831 6.96071 11.911 6.97433 11.9351 6.99329C11.9593 7.01225 11.9791 7.03613 11.9933 7.06334C12.02 7.11667 12.02 7.18 12 7.25334C11.9835 7.31634 11.9428 7.37026 11.8867 7.40334C11.8367 7.43334 11.7767 7.43667 11.7133 7.41667C11.6836 7.4091 11.6558 7.39541 11.6317 7.37646C11.6076 7.35752 11.5877 7.33375 11.5733 7.30667C11.56 7.27753 11.5525 7.24604 11.5514 7.214C11.5502 7.18197 11.5554 7.15002 11.5667 7.12Z" fill="#309E3A"/>
<path d="M11.66 7.14667C11.6466 7.19667 11.6433 7.24001 11.66 7.27334C11.6766 7.30667 11.7 7.32667 11.7366 7.34001C11.77 7.35001 11.8033 7.34667 11.8366 7.32667C11.87 7.31001 11.89 7.27334 11.9066 7.22001C11.9233 7.17001 11.9233 7.13001 11.9066 7.09667C11.9001 7.08086 11.8901 7.06669 11.8774 7.05517C11.8647 7.04364 11.8497 7.03505 11.8333 7.03001C11.8169 7.02434 11.7995 7.02231 11.7822 7.02403C11.7649 7.02576 11.7483 7.03121 11.7333 7.04001C11.7 7.06001 11.6766 7.09334 11.66 7.14667Z" fill="white"/>
<path d="M12.4767 7.76999L12.69 7.35666L12.8667 7.44666C12.9 7.46264 12.9304 7.48404 12.9567 7.50999C12.9734 7.52666 12.9834 7.54666 12.9834 7.57333C12.9834 7.59999 12.9834 7.62333 12.97 7.64666C12.9572 7.67663 12.9333 7.70051 12.9034 7.71333C12.87 7.71999 12.8367 7.71999 12.8 7.70666C12.8134 7.72666 12.82 7.74666 12.8267 7.76333C12.8334 7.78333 12.8367 7.81333 12.84 7.85666L12.8467 7.96333L12.7467 7.91333L12.7334 7.78999C12.7318 7.76203 12.7284 7.7342 12.7234 7.70666C12.7211 7.69419 12.7153 7.68263 12.7067 7.67333L12.6667 7.64999L12.65 7.63999L12.56 7.81333L12.4767 7.76999Z" fill="#309E3A"/>
<path d="M12.6833 7.57333L12.7467 7.60666C12.7867 7.62666 12.8134 7.63999 12.8234 7.63999C12.8334 7.63999 12.8467 7.63999 12.8567 7.63333C12.8667 7.62999 12.8733 7.61999 12.88 7.60666C12.8867 7.59333 12.89 7.57999 12.8867 7.56666C12.8826 7.55339 12.8744 7.54173 12.8633 7.53333C12.8438 7.52136 12.8238 7.51024 12.8033 7.49999L12.7367 7.46666L12.6833 7.57333Z" fill="white"/>
<path d="M14.2033 8.62333C14.2249 8.58906 14.2532 8.55956 14.2866 8.53666C14.3091 8.52231 14.3339 8.51214 14.36 8.50666C14.3842 8.50173 14.4091 8.50173 14.4333 8.50666C14.4666 8.51333 14.4966 8.52666 14.5266 8.54666C14.5526 8.56282 14.5749 8.58421 14.5921 8.60946C14.6093 8.63472 14.6211 8.66328 14.6266 8.69333C14.6366 8.75 14.62 8.81333 14.58 8.87666C14.5465 8.93175 14.4926 8.97131 14.43 8.98666C14.4001 8.99311 14.3693 8.99318 14.3394 8.98686C14.3095 8.98054 14.2813 8.96798 14.2566 8.95C14.2307 8.93384 14.2084 8.91245 14.1912 8.8872C14.174 8.86195 14.1622 8.83338 14.1566 8.80333C14.1466 8.74333 14.1633 8.68333 14.2033 8.62333Z" fill="#309E3A"/>
<path d="M14.2867 8.67667C14.2533 8.72 14.2433 8.76 14.25 8.79667C14.2525 8.81355 14.2585 8.82972 14.2677 8.84409C14.2769 8.85846 14.289 8.8707 14.3033 8.88C14.3367 8.90334 14.37 8.91 14.4033 8.9C14.4367 8.89 14.47 8.86667 14.5 8.82C14.53 8.77334 14.5433 8.73334 14.5367 8.7C14.5333 8.66667 14.5133 8.63667 14.4833 8.61334C14.4533 8.59 14.4167 8.58667 14.3833 8.59667C14.35 8.60334 14.3167 8.63 14.2833 8.67667H14.2867Z" fill="white"/>
<path d="M10.06 6.81667L10.1367 6.49001L10.3767 6.54667L10.3667 6.60001L10.19 6.56001L10.1733 6.63334L10.3367 6.67001L10.3233 6.72667L10.16 6.68667L10.14 6.77667L10.3233 6.82001L10.31 6.87334L10.06 6.81667Z" fill="#309E3A"/>
</g>
<defs>
<clipPath id="clip0_39_3531">
<rect width="21.3333" height="16" fill="white"/>
</clipPath>
</defs>
</svg>
