<svg width="22" height="16" viewBox="0 0 22 16" fill="none" xmlns="http://www.w3.org/2000/svg">
<g clip-path="url(#clip0_39_3533)">
<path fill-rule="evenodd" clip-rule="evenodd" d="M0 0H21.3333V16H0V0Z" fill="#FFE800"/>
<path fill-rule="evenodd" clip-rule="evenodd" d="M0 8H21.3333V16H0V8Z" fill="#00148E"/>
<path fill-rule="evenodd" clip-rule="evenodd" d="M0 12H21.3333V16H0V12Z" fill="#DA0010"/>
<path fill-rule="evenodd" clip-rule="evenodd" d="M8.98667 9.69333L6.56667 12.2433L6.52667 12.19L8.94001 9.64L8.98001 9.69333H8.98667ZM10.6667 10.11L7.50667 13.4433L7.45334 13.39L10.61 10.0567L10.6667 10.11Z" fill="black"/>
<path fill-rule="evenodd" clip-rule="evenodd" d="M7.51636 13.4044L7.22102 13.6997L6.88439 13.9538L7.13842 13.6171L7.43376 13.3218L7.51636 13.4044Z" fill="#808080" stroke="black" stroke-width="0.0606398"/>
<path fill-rule="evenodd" clip-rule="evenodd" d="M6.70306 12.1011L6.40773 12.3964L6.0711 12.6504L6.32513 12.3138L6.62046 12.0185L6.70306 12.1011Z" fill="#808080" stroke="black" stroke-width="0.0606398"/>
<path fill-rule="evenodd" clip-rule="evenodd" d="M6.93136 3.8264C6.93136 3.8264 6.66586 11.0072 7.72786 11.0072C8.78986 11.0072 9.32236 10.252 9.32236 10.252L9.31036 6.30533L6.93136 3.8264Z" fill="#FFDF00" stroke="black" stroke-width="0.0894427"/>
<path fill-rule="evenodd" clip-rule="evenodd" d="M7.5808 4.49626C7.5808 4.87386 7.4623 10.252 7.9933 10.252C8.5243 10.252 9.3223 9.87439 9.3223 9.87439L9.3103 6.30533L7.5808 4.49626Z" fill="#0000C4" stroke="black" stroke-width="0.0894427"/>
<path fill-rule="evenodd" clip-rule="evenodd" d="M7.92584 4.85893C7.92584 5.23653 7.99334 9.4968 8.52584 9.4968H9.32234L9.31034 6.30533L7.92584 4.85893Z" fill="#E10000" stroke="black" stroke-width="0.0894427"/>
<path fill-rule="evenodd" clip-rule="evenodd" d="M6.87335 3.86667L9.28669 6.41667L9.33002 6.36334L6.91669 3.81334L6.87335 3.86667Z" fill="black"/>
<path fill-rule="evenodd" clip-rule="evenodd" d="M6.1432 5.29787C6.1432 5.29787 5.4588 12.2543 7.512 12.2543C9.223 12.2543 9.223 11.1569 9.5652 11.1569L9.223 8.5942L6.1432 5.29787Z" fill="#FFDF00" stroke="black" stroke-width="0.0999444"/>
<path d="M7.83932 6.45439C7.85399 6.45329 8.37332 5.32943 9.67132 4.61806" stroke="black" stroke-width="0.108269"/>
<path fill-rule="evenodd" clip-rule="evenodd" d="M7.62688 5.395C7.80788 5.47947 7.92241 5.57667 8.02668 5.69C7.81954 5.6466 7.71268 5.62907 7.53168 5.5446C7.35068 5.46014 7.21241 5.33094 7.10254 5.2264C7.23728 5.2674 7.44488 5.31007 7.62688 5.395Z" fill="#005B00" stroke="black" stroke-width="0.0489698"/>
<path fill-rule="evenodd" clip-rule="evenodd" d="M8.08086 6.0833C8.0942 6.10597 8.08273 6.1379 8.05453 6.15357C8.02633 6.16924 7.99253 6.1632 7.97886 6.13997C7.9652 6.11674 7.97733 6.08594 8.00553 6.07027C8.03373 6.0546 8.06753 6.06064 8.08086 6.0833Z" fill="#FF0000" stroke="black" stroke-width="0.0335875"/>
<path fill-rule="evenodd" clip-rule="evenodd" d="M8.64971 4.67563C8.57128 4.87473 8.48474 5.00593 8.38501 5.12833C8.42984 4.90683 8.44888 4.79313 8.52731 4.59403C8.60574 4.39493 8.72021 4.23513 8.81274 4.10793C8.77281 4.25353 8.72858 4.47543 8.64971 4.67563Z" fill="#005B00" stroke="black" stroke-width="0.0461669"/>
<path fill-rule="evenodd" clip-rule="evenodd" d="M8.38489 4.66529C8.36679 4.86439 8.32713 5.01859 8.27499 5.17499C8.26136 4.98149 8.25119 4.88479 8.26929 4.68569C8.28739 4.48659 8.34293 4.29279 8.38826 4.13759C8.38889 4.27169 8.40309 4.46509 8.38489 4.66529Z" fill="#005B00" stroke="black" stroke-width="0.0398615"/>
<path fill-rule="evenodd" clip-rule="evenodd" d="M8.55786 4.893C8.4553 5.01366 8.36903 5.066 8.27836 5.1C8.36973 4.93266 8.4145 4.84366 8.51706 4.723C8.61963 4.60233 8.72956 4.54566 8.81783 4.50166C8.75216 4.6035 8.661 4.77166 8.55786 4.893Z" fill="#005B00" stroke="black" stroke-width="0.0432966"/>
<path fill-rule="evenodd" clip-rule="evenodd" d="M7.68399 5.0616C7.80466 5.2064 7.86466 5.34587 7.90999 5.5C7.75199 5.39253 7.66866 5.3424 7.54799 5.1976C7.42733 5.0528 7.35933 4.87147 7.30599 4.72533C7.40399 4.8092 7.56266 4.916 7.68399 5.0616Z" fill="#005B00" stroke="black" stroke-width="0.0495432"/>
<path fill-rule="evenodd" clip-rule="evenodd" d="M7.44111 6.17774C7.59195 6.2984 7.67155 6.4228 7.73501 6.56334C7.54311 6.48374 7.44235 6.448 7.29151 6.32734C7.14068 6.20667 7.04888 6.04347 6.97661 5.91174C7.09681 5.97754 7.28945 6.0564 7.44111 6.17774Z" fill="#005B00" stroke="black" stroke-width="0.0526016"/>
<path fill-rule="evenodd" clip-rule="evenodd" d="M8.14748 6.11147C8.02682 6.30454 7.89628 6.43427 7.74668 6.55667C7.81882 6.34494 7.85002 6.23654 7.97068 6.04347C8.09135 5.8504 8.26362 5.69174 8.40282 5.56534C8.34008 5.70527 8.26882 5.91734 8.14748 6.11147Z" fill="#005B00" stroke="black" stroke-width="0.0540371"/>
<path fill-rule="evenodd" clip-rule="evenodd" d="M8.27357 6.10381C8.08051 6.23654 7.91244 6.30561 7.73337 6.36001C7.89844 6.18994 7.97851 6.10054 8.17157 5.96781C8.36464 5.83507 8.57997 5.75574 8.75304 5.69334C8.63227 5.79961 8.46771 5.97034 8.27357 6.10381Z" fill="#005B00" stroke="black" stroke-width="0.0519301"/>
<path fill-rule="evenodd" clip-rule="evenodd" d="M9.57512 4.71641C9.49065 4.81294 9.41492 4.87014 9.33332 4.92001C9.40285 4.80481 9.43625 4.74494 9.52072 4.64841C9.60519 4.55187 9.70265 4.48387 9.78105 4.43001C9.72932 4.50381 9.66005 4.61934 9.57512 4.71641Z" fill="#005B00" stroke="black" stroke-width="0.0275007"/>
<path fill-rule="evenodd" clip-rule="evenodd" d="M9.39217 4.43164C9.34391 4.5342 9.29231 4.61127 9.23337 4.68834C9.26297 4.58577 9.27591 4.5342 9.32417 4.43164C9.37244 4.32907 9.44044 4.23274 9.49537 4.15567C9.46997 4.22594 9.44071 4.3285 9.39217 4.43164Z" fill="#005B00" stroke="black" stroke-width="0.0228451"/>
<path fill-rule="evenodd" clip-rule="evenodd" d="M9.67477 4.61574C9.59031 4.664 9.52684 4.6788 9.46337 4.68334C9.54784 4.60894 9.59031 4.5688 9.67477 4.52054C9.75924 4.47227 9.83857 4.45867 9.90204 4.44854C9.84417 4.49234 9.75971 4.5672 9.67477 4.61574Z" fill="#005B00" stroke="black" stroke-width="0.0250413"/>
<path fill-rule="evenodd" clip-rule="evenodd" d="M8.50914 5.1565C8.3583 5.247 8.23424 5.29967 8.10504 5.345C8.2428 5.23583 8.3107 5.179 8.46154 5.0885C8.61237 4.998 8.7699 4.93567 8.8963 4.88633C8.79834 4.956 8.6608 5.0655 8.50914 5.1565Z" fill="#005B00" stroke="black" stroke-width="0.0314413"/>
<path fill-rule="evenodd" clip-rule="evenodd" d="M8.94937 5.2916C8.75027 5.41227 8.58073 5.4692 8.40167 5.51C8.5765 5.34827 8.66187 5.26267 8.86097 5.142C9.06007 5.02134 9.27653 4.95787 9.4504 4.90827C9.32397 5.0078 9.14957 5.17027 8.94937 5.2916Z" fill="#005B00" stroke="black" stroke-width="0.052336"/>
<path d="M7.5963 7.24453C7.60913 7.2372 7.4878 6.17853 8.2977 5.07733" stroke="black" stroke-width="0.106572"/>
<path fill-rule="evenodd" clip-rule="evenodd" d="M8.83758 5.01329C8.85091 5.03596 8.83944 5.0679 8.81124 5.08356C8.78304 5.09923 8.74924 5.09319 8.73558 5.06996C8.72191 5.04673 8.73404 5.01593 8.76224 5.00026C8.79044 4.98459 8.82424 4.99063 8.83758 5.01329Z" fill="#FF0000" stroke="black" stroke-width="0.0335875"/>
<path fill-rule="evenodd" clip-rule="evenodd" d="M9.19756 4.8033C9.21089 4.82597 9.19943 4.8579 9.17123 4.87357C9.14303 4.88924 9.10923 4.8832 9.09556 4.85997C9.08189 4.83674 9.09403 4.80594 9.12223 4.79027C9.15043 4.7746 9.18423 4.78064 9.19756 4.8033Z" fill="#FF0000" stroke="black" stroke-width="0.0335875"/>
<path fill-rule="evenodd" clip-rule="evenodd" d="M8.19299 5.50904C8.20232 5.52637 8.18492 5.55377 8.15359 5.56944C8.12226 5.58511 8.08922 5.58347 8.07966 5.56571C8.07009 5.54794 8.08796 5.52141 8.11929 5.50574C8.15062 5.49007 8.18366 5.49171 8.19299 5.50904Z" fill="#FF0000" stroke="black" stroke-width="0.0302835"/>
<path fill-rule="evenodd" clip-rule="evenodd" d="M8.29962 5.46236C8.30895 5.4797 8.29155 5.5071 8.26022 5.52276C8.22888 5.53843 8.19585 5.5368 8.18628 5.51903C8.17672 5.50126 8.19458 5.47473 8.22592 5.45906C8.25725 5.4434 8.29028 5.44503 8.29962 5.46236Z" fill="#FF0000" stroke="black" stroke-width="0.0302835"/>
<path fill-rule="evenodd" clip-rule="evenodd" d="M8.23632 5.56237C8.24566 5.5797 8.22826 5.6071 8.19692 5.62277C8.16559 5.63844 8.13256 5.6368 8.12299 5.61904C8.11342 5.60127 8.13129 5.57474 8.16262 5.55907C8.19396 5.5434 8.22699 5.54504 8.23632 5.56237Z" fill="#FF0000" stroke="black" stroke-width="0.0302835"/>
<path fill-rule="evenodd" clip-rule="evenodd" d="M8.42337 5.57667C8.43671 5.60333 8.42337 5.63667 8.39004 5.65333C8.35671 5.67 8.32337 5.66 8.31004 5.63C8.29671 5.6 8.31004 5.57 8.34337 5.55333C8.37671 5.53667 8.41004 5.54667 8.42004 5.57667H8.42337Z" fill="#FF0000" stroke="black" stroke-width="0.0375"/>
<path fill-rule="evenodd" clip-rule="evenodd" d="M8.50004 5.49667C8.51004 5.52334 8.50004 5.55667 8.4667 5.57334C8.43337 5.59001 8.40004 5.58001 8.38337 5.55334C8.3667 5.52667 8.38337 5.49001 8.4167 5.47334C8.45004 5.45667 8.48337 5.47001 8.4967 5.49667H8.50004Z" fill="#FF0000" stroke="black" stroke-width="0.0375"/>
<path fill-rule="evenodd" clip-rule="evenodd" d="M8.5167 5.53334C8.53003 5.56 8.5167 5.59667 8.48336 5.61C8.45003 5.62334 8.4167 5.61667 8.40336 5.59C8.39003 5.56334 8.40336 5.53 8.4367 5.51334C8.47003 5.49667 8.50336 5.50667 8.5167 5.53334Z" fill="#FF0000" stroke="black" stroke-width="0.0375"/>
<path fill-rule="evenodd" clip-rule="evenodd" d="M6.82759 6.03154C6.82759 6.39734 6.14319 10.4253 7.85612 11.5227C8.54052 11.8885 9.56712 11.1569 9.56712 11.5227L9.22492 8.59421L6.82759 6.03154Z" fill="#0000C4" stroke="black" stroke-width="0.0999444"/>
<path fill-rule="evenodd" clip-rule="evenodd" d="M7.51203 6.76314C7.51203 7.12894 7.16983 10.0574 8.19836 10.7911C8.88276 11.5227 10.5957 11.3243 10.5957 11.3243L9.22496 8.5942L7.51203 6.76314Z" fill="#E10000" stroke="black" stroke-width="0.0999444"/>
<path fill-rule="evenodd" clip-rule="evenodd" d="M6.12665 5.26666L9.28665 8.59999L9.34331 8.54666L6.18331 5.21666L6.12665 5.26666Z" fill="black"/>
<path fill-rule="evenodd" clip-rule="evenodd" d="M5.64047 4.87153L5.84107 4.90693L5.90007 4.96593C5.892 4.96533 5.95907 5.02493 5.87647 5.10753C5.79387 5.19013 5.67633 5.07167 5.67633 5.07167C5.67633 5.07167 5.71173 5.27227 5.83007 5.3906C5.9484 5.50893 6.08967 5.485 6.08967 5.485C6.08967 5.485 5.9552 5.3748 6.05427 5.2844C6.15347 5.1932 6.19587 5.2608 6.19587 5.2608L6.31387 5.3788L6.39693 5.29573L5.9246 4.8234L5.8892 4.6228L5.58493 4.5724L5.6406 4.87073L5.64047 4.87153Z" fill="#CECECC" stroke="black" stroke-width="0.0278887"/>
<path fill-rule="evenodd" clip-rule="evenodd" d="M6.10593 3.47073L6.34867 3.847L6.65593 3.92993L6.45533 4.05973L6.82113 4.04793L6.9868 4.16626L7.04613 4.07133L6.88 3.95266L6.75053 3.58633L6.7148 3.83466L6.52587 3.5624L6.1058 3.46986L6.10593 3.47073Z" fill="#CECECC" stroke="black" stroke-width="0.0300285"/>
<path fill-rule="evenodd" clip-rule="evenodd" d="M7.09332 3.69667C7.09332 3.71667 7.06665 3.73367 7.03598 3.73367C7.00532 3.73367 6.97732 3.71667 6.97732 3.69667C6.97732 3.67667 7.00398 3.65867 7.03598 3.65867C7.06798 3.65867 7.09332 3.67567 7.09332 3.69667ZM7.01065 3.77567C7.01065 4.13367 7.28932 5.65367 7.31198 5.69067C7.31332 5.73567 7.24798 5.75467 7.21732 5.69967C7.12932 5.52567 6.93998 4.09967 6.93332 3.76667C6.92932 3.62967 6.98265 3.61867 7.04398 3.62167C7.09332 3.62367 7.15465 3.65867 7.15465 3.70067C7.15465 3.75067 7.07732 3.78767 7.01065 3.77567Z" fill="#E10000" stroke="black" stroke-width="0.057735"/>
<path fill-rule="evenodd" clip-rule="evenodd" d="M7.20001 4.05167C7.19001 4.07167 7.15618 4.082 7.12705 4.07433C7.09791 4.06667 7.07981 4.04266 7.08981 4.02266C7.09981 4.00266 7.13415 3.99133 7.16455 3.99933C7.19495 4.00733 7.21051 4.03067 7.20001 4.05167ZM7.08198 4.11C7.17398 4.829 6.86535 5.93933 6.86788 5.983C6.84715 6.02733 6.77508 6.031 6.77395 5.96733C6.75878 5.926 7.11408 4.923 7.01301 4.08167C7.07771 3.94367 7.13388 3.946 7.19065 3.96433C7.23651 3.97867 7.27728 4.029 7.25628 4.071C7.23128 4.121 7.13931 4.13866 7.08198 4.11Z" fill="#0000C4" stroke="black" stroke-width="0.060506"/>
<path fill-rule="evenodd" clip-rule="evenodd" d="M6.22335 5.05001C6.22335 5.08334 6.19002 5.11667 6.15002 5.11667C6.11002 5.11667 6.07668 5.08334 6.07668 5.05001C6.07668 5.01667 6.11002 4.99001 6.15002 4.99001C6.19002 4.99001 6.22002 5.01667 6.22002 5.05001H6.22335ZM6.11668 5.18334C6.11668 5.78001 6.46668 8.31334 6.49335 8.37667C6.49335 8.45001 6.41668 8.48334 6.37668 8.39001C6.26668 8.10001 6.03002 5.72334 6.02002 5.17001C6.01668 4.94001 6.08335 4.92334 6.16002 4.92667C6.22335 4.93001 6.29668 4.99001 6.29668 5.06001C6.29668 5.14001 6.20002 5.20334 6.11668 5.18334Z" fill="#E10000" stroke="black" stroke-width="0.0875"/>
<path fill-rule="evenodd" clip-rule="evenodd" d="M6.40334 5.35783C6.39001 5.38983 6.34668 5.40703 6.30988 5.39553C6.27308 5.38403 6.25081 5.34633 6.26414 5.31433C6.27748 5.28233 6.32148 5.26353 6.35988 5.27553C6.39828 5.28753 6.41734 5.32423 6.40334 5.35783ZM6.25148 5.45323C6.34614 6.59313 5.91934 8.36393 5.92121 8.43323C5.89348 8.50413 5.80174 8.51163 5.80228 8.41053C5.78428 8.34523 6.26708 6.74383 6.16468 5.40983C6.25121 5.18913 6.32254 5.19153 6.39414 5.21933C6.45201 5.24103 6.50228 5.32003 6.47428 5.38723C6.44094 5.46723 6.32348 5.49743 6.25148 5.45323Z" fill="#0000C4" stroke="black" stroke-width="0.0852291"/>
<path fill-rule="evenodd" clip-rule="evenodd" d="M12.3467 9.69333L14.7634 12.2433L14.8067 12.19L12.39 9.64L12.3467 9.69333ZM10.6667 10.11L13.8267 13.4433L13.88 13.39L10.7234 10.0567L10.6667 10.11Z" fill="black"/>
<path fill-rule="evenodd" clip-rule="evenodd" d="M13.817 13.4044L14.1123 13.6997L14.4489 13.9538L14.1949 13.6171L13.8996 13.3218L13.817 13.4044Z" fill="#808080" stroke="black" stroke-width="0.0606398"/>
<path fill-rule="evenodd" clip-rule="evenodd" d="M14.6303 12.1011L14.9256 12.3964L15.2623 12.6504L15.0082 12.3138L14.7129 12.0185L14.6303 12.1011Z" fill="#808080" stroke="black" stroke-width="0.0606398"/>
<path fill-rule="evenodd" clip-rule="evenodd" d="M14.402 3.8264C14.402 3.8264 14.6675 11.0072 13.6055 11.0072C12.5435 11.0072 12.011 10.252 12.011 10.252L12.023 6.30533L14.402 3.8264Z" fill="#FFDF00" stroke="black" stroke-width="0.0894427"/>
<path fill-rule="evenodd" clip-rule="evenodd" d="M13.7525 4.49626C13.7525 4.87386 13.871 10.252 13.34 10.252C12.809 10.252 12.011 9.87439 12.011 9.87439L12.023 6.30533L13.7525 4.49626Z" fill="#0000C4" stroke="black" stroke-width="0.0894427"/>
<path fill-rule="evenodd" clip-rule="evenodd" d="M13.4075 4.85893C13.4075 5.23653 13.34 9.4968 12.8075 9.4968H12.011L12.023 6.30533L13.4075 4.85893Z" fill="#E10000" stroke="black" stroke-width="0.0894427"/>
<path fill-rule="evenodd" clip-rule="evenodd" d="M14.46 3.86666L12.0467 6.41666L12.0034 6.36332L14.4167 3.81332L14.46 3.86666Z" fill="black"/>
<path fill-rule="evenodd" clip-rule="evenodd" d="M12.5551 5.83587C12.5551 5.83587 13.2316 6.70387 13.558 7.3747C13.8841 8.04694 14.2649 9.07127 14.2649 9.07127C14.2649 9.07127 14.0473 8.0628 13.6367 7.2543C13.0985 6.2372 12.5548 5.89374 12.5551 5.83587Z" fill="#005B00" stroke="black" stroke-width="0.0417337"/>
<path fill-rule="evenodd" clip-rule="evenodd" d="M12.5317 5.14633C12.5317 5.14633 13.2867 6.21983 13.6313 7.01599C13.9754 7.81366 14.3586 9.00933 14.3586 9.00933C14.3586 9.00933 14.1726 7.85899 13.7363 6.89649C13.1612 5.68199 12.5269 5.21016 12.5317 5.14633Z" fill="#005B00" stroke="black" stroke-width="0.0482227"/>
<path fill-rule="evenodd" clip-rule="evenodd" d="M13.1832 4.08493C13.1832 4.08493 13.7174 5.6746 13.8801 6.6576C14.042 7.64146 14.1409 8.99546 14.1409 8.99546C14.1409 8.99546 14.2438 7.85906 14.0256 6.65273C13.7238 5.10826 13.1611 4.1342 13.1832 4.08493Z" fill="#005B00" stroke="black" stroke-width="0.0547737"/>
<path fill-rule="evenodd" clip-rule="evenodd" d="M12.7037 4.01219C12.7037 4.01219 13.4433 5.42396 13.7314 6.38333C14.0187 7.34406 14.2889 8.73013 14.2889 8.73013C14.2889 8.73013 14.2499 7.47099 13.8778 6.30316C13.3785 4.81959 12.6875 4.07589 12.7037 4.01219Z" fill="#005B00" stroke="black" stroke-width="0.0555036"/>
<path fill-rule="evenodd" clip-rule="evenodd" d="M13.5918 4.46146C13.5918 4.46146 13.9599 5.98146 14.0524 6.88829C14.1441 7.79573 14.1704 9.02006 14.1704 9.02006C14.1704 9.02006 14.2982 8.02919 14.1699 6.91269C13.9874 5.47879 13.572 4.50093 13.5918 4.46146Z" fill="#005B00" stroke="black" stroke-width="0.0492217"/>
<path fill-rule="evenodd" clip-rule="evenodd" d="M12.6192 4.50333C12.6192 4.50333 13.3347 5.71266 13.6243 6.55799C13.9132 7.40466 14.1977 8.64199 14.1977 8.64199C14.1977 8.64199 14.1285 7.49533 13.7564 6.46866C13.2593 5.16733 12.6061 4.56333 12.6192 4.50333Z" fill="#005B00" stroke="black" stroke-width="0.0506234"/>
<path fill-rule="evenodd" clip-rule="evenodd" d="M12.485 5.34553C12.485 5.34553 13.24 6.30423 13.5846 7.03846C13.9287 7.77419 14.3119 8.89133 14.3119 8.89133C14.3119 8.89133 14.1259 7.79686 13.6896 6.91136C13.1145 5.79666 12.4802 5.40789 12.485 5.34553Z" fill="#005B00" stroke="black" stroke-width="0.0476898"/>
<path fill-rule="evenodd" clip-rule="evenodd" d="M12.583 4.90513C12.583 4.90513 13.2775 6.03297 13.5799 6.8488C13.8817 7.66607 14.203 8.8784 14.203 8.8784C14.203 8.8784 14.0744 7.72953 13.6894 6.74137C13.1794 5.49213 12.5752 4.96743 12.583 4.90513Z" fill="#005B00" stroke="black" stroke-width="0.0475875"/>
<path fill-rule="evenodd" clip-rule="evenodd" d="M13.3351 4.10899C13.3351 4.10899 13.7816 5.66536 13.8923 6.61593C14.0021 7.56726 14.0307 8.86773 14.0307 8.86773C14.0307 8.86773 14.1902 7.78939 14.0362 6.62156C13.8168 5.12479 13.3108 4.15449 13.3351 4.10899Z" fill="#005B00" stroke="black" stroke-width="0.0532434"/>
<path fill-rule="evenodd" clip-rule="evenodd" d="M12.7223 3.721C12.7223 3.721 13.3743 5.1871 13.6103 6.16613C13.8455 7.14647 14.0455 8.5492 14.0455 8.5492C14.0455 8.5492 14.0631 7.29153 13.7551 6.09803C13.3383 4.57973 12.7039 3.78316 12.7223 3.721Z" fill="#005B00" stroke="black" stroke-width="0.0547386"/>
<path fill-rule="evenodd" clip-rule="evenodd" d="M13.7605 4.5728C13.7605 4.5728 14.0409 6.03234 14.0813 6.8969C14.1209 7.762 14.0769 8.92447 14.0769 8.92447C14.0769 8.92447 14.2614 7.99094 14.1972 6.92577C14.0972 5.55694 13.7384 4.60927 13.7605 4.5728Z" fill="#005B00" stroke="black" stroke-width="0.0473281"/>
<path fill-rule="evenodd" clip-rule="evenodd" d="M12.6389 4.32547C12.6389 4.32547 13.2909 5.58914 13.5269 6.45414C13.7621 7.32041 13.9621 8.57441 13.9621 8.57441C13.9621 8.57441 13.9797 7.42921 13.6717 6.37687C13.2549 5.04081 12.6205 4.38394 12.6389 4.32547Z" fill="#005B00" stroke="black" stroke-width="0.0517292"/>
<path fill-rule="evenodd" clip-rule="evenodd" d="M15.1901 5.29787C15.1901 5.29787 15.8745 12.2543 13.8213 12.2543C12.1103 12.2543 12.1103 11.1569 11.7681 11.1569L12.1103 8.5942L15.1901 5.29787Z" fill="#FFDF00" stroke="black" stroke-width="0.0999444"/>
<path fill-rule="evenodd" clip-rule="evenodd" d="M14.5057 6.03152C14.5057 6.39732 15.1901 10.4253 13.4772 11.5227C12.7928 11.8885 11.7662 11.1569 11.7662 11.5227L12.1084 8.59419L14.5057 6.03152Z" fill="#0000C4" stroke="black" stroke-width="0.0999444"/>
<path fill-rule="evenodd" clip-rule="evenodd" d="M13.8213 6.76312C13.8213 7.12892 14.1635 10.0574 13.135 10.7911C12.4506 11.5227 10.7377 11.3243 10.7377 11.3243L12.1084 8.59419L13.8213 6.76312Z" fill="#E10000" stroke="black" stroke-width="0.0999444"/>
<path fill-rule="evenodd" clip-rule="evenodd" d="M15.2067 5.26666L12.0467 8.59999L11.99 8.54666L15.15 5.21666L15.2067 5.26666Z" fill="black"/>
<path fill-rule="evenodd" clip-rule="evenodd" d="M15.6928 4.87153L15.4922 4.90693L15.4332 4.96593C15.4413 4.96533 15.3742 5.02493 15.4568 5.10753C15.5394 5.19013 15.657 5.07167 15.657 5.07167C15.657 5.07167 15.6216 5.27227 15.5032 5.3906C15.3849 5.50893 15.2436 5.485 15.2436 5.485C15.2436 5.485 15.3781 5.3748 15.279 5.2844C15.1798 5.1932 15.1374 5.2608 15.1374 5.2608L15.0194 5.3788L14.9364 5.29573L15.4087 4.8234L15.4441 4.6228L15.7484 4.5724L15.6927 4.87073L15.6928 4.87153Z" fill="#CECECC" stroke="black" stroke-width="0.0278887"/>
<path fill-rule="evenodd" clip-rule="evenodd" d="M15.2274 3.47073L14.9846 3.847L14.6774 3.92993L14.878 4.05973L14.5122 4.04793L14.3465 4.16626L14.2872 4.07133L14.4533 3.95266L14.5828 3.58633L14.6185 3.83466L14.8074 3.5624L15.2275 3.46986L15.2274 3.47073Z" fill="#CECECC" stroke="black" stroke-width="0.0300285"/>
<path fill-rule="evenodd" clip-rule="evenodd" d="M14.2434 3.69666C14.2434 3.71666 14.27 3.73366 14.3007 3.73366C14.3314 3.73366 14.3594 3.71666 14.3594 3.69666C14.3594 3.67666 14.3327 3.65866 14.3007 3.65866C14.2687 3.65866 14.2434 3.67566 14.2434 3.69666ZM14.326 3.77566C14.326 4.13366 14.0474 5.65366 14.0247 5.69066C14.0234 5.73566 14.0887 5.75466 14.1194 5.69966C14.2074 5.52566 14.3967 4.09966 14.4034 3.76666C14.4074 3.62966 14.354 3.61866 14.2927 3.62166C14.2434 3.62366 14.182 3.65866 14.182 3.70066C14.182 3.75066 14.2594 3.78766 14.326 3.77566Z" fill="#E10000" stroke="black" stroke-width="0.057735"/>
<path fill-rule="evenodd" clip-rule="evenodd" d="M14.1334 4.05167C14.1434 4.07167 14.1772 4.082 14.2063 4.07433C14.2355 4.06667 14.2536 4.04266 14.2436 4.02266C14.2336 4.00266 14.1992 3.99133 14.1688 3.99933C14.1384 4.00733 14.1229 4.03067 14.1334 4.05167ZM14.2514 4.11C14.1594 4.829 14.468 5.93933 14.4655 5.983C14.4862 6.02733 14.5583 6.031 14.5594 5.96733C14.5746 5.926 14.2193 4.923 14.3204 4.08167C14.2557 3.94367 14.1995 3.946 14.1427 3.96433C14.0969 3.97867 14.0561 4.029 14.0771 4.071C14.1021 4.121 14.1941 4.13866 14.2514 4.11Z" fill="#0000C4" stroke="black" stroke-width="0.060506"/>
<path fill-rule="evenodd" clip-rule="evenodd" d="M15.1134 5.04999C15.1134 5.08333 15.1467 5.11666 15.1834 5.11666C15.2234 5.11666 15.2567 5.08333 15.2567 5.04999C15.2567 5.01666 15.2234 4.98999 15.1834 4.98999C15.1434 4.98999 15.1134 5.01666 15.1134 5.04999ZM15.2134 5.18333C15.1336 6.25251 15.009 7.31789 14.84 8.37666C14.84 8.44999 14.9167 8.48333 14.9567 8.38999C15.0667 8.09999 15.3034 5.72333 15.3134 5.16999C15.3167 4.93999 15.25 4.92333 15.1734 4.92666C15.11 4.92999 15.0367 4.98999 15.0367 5.05999C15.0367 5.13999 15.1334 5.20333 15.2167 5.18333H15.2134Z" fill="#E10000" stroke="black" stroke-width="0.0875"/>
<path fill-rule="evenodd" clip-rule="evenodd" d="M14.93 5.35783C14.9434 5.38983 14.9867 5.40703 15.0235 5.39553C15.0603 5.38403 15.0826 5.34633 15.0692 5.31433C15.0559 5.28233 15.0119 5.26353 14.9735 5.27553C14.9351 5.28753 14.916 5.32423 14.93 5.35783ZM15.0819 5.45323C14.9872 6.59313 15.414 8.36393 15.4122 8.43323C15.4399 8.50413 15.5316 8.51163 15.5311 8.41053C15.5491 8.34523 15.0663 6.74383 15.1687 5.40983C15.0822 5.18913 15.0108 5.19153 14.9392 5.21933C14.8814 5.24103 14.8311 5.32003 14.8591 5.38723C14.8924 5.46723 15.0099 5.49743 15.0819 5.45323Z" fill="#0000C4" stroke="black" stroke-width="0.0852291"/>
<path fill-rule="evenodd" clip-rule="evenodd" d="M9.56907 14.0853C9.72526 14.1812 9.90224 14.2317 10.0824 14.2317C10.2625 14.2317 10.4395 14.1812 10.5957 14.0853V11.1569H9.91127C10.2535 12.2543 10.2535 13.3537 9.56714 14.0853H9.56907Z" fill="#E10000" stroke="black" stroke-width="0.0999444"/>
<path fill-rule="evenodd" clip-rule="evenodd" d="M10.111 11.2217C10.111 13.2867 9.61517 13.7463 9.61517 14.1617C9.82167 14.1617 9.95934 13.968 10.111 13.702C10.3175 13.2867 10.3373 11.189 10.3175 11.2217H10.111Z" fill="#0000C4" stroke="black" stroke-width="0.0824958"/>
<path fill-rule="evenodd" clip-rule="evenodd" d="M9.69796 11.2217C9.68746 12.428 9.17529 13.5457 9.27213 13.793C9.38179 14.0147 9.69796 13.2867 10.111 13.6997C10.3175 13.2867 10.3373 11.189 10.3175 11.2193L9.69796 11.2217Z" fill="#0000C4" stroke="black" stroke-width="0.0824958"/>
<path fill-rule="evenodd" clip-rule="evenodd" d="M9.7443 11.0457C9.7443 12.4027 9.26947 12.4931 9.26947 12.855C9.47597 12.855 9.74314 12.6572 9.7443 12.6756C9.9508 12.4027 9.97064 11.0242 9.9508 11.0457H9.7443Z" fill="#FFDF00" stroke="black" stroke-width="0.0668747"/>
<path fill-rule="evenodd" clip-rule="evenodd" d="M9.33132 11.0457C9.32082 11.8384 8.82032 12.5131 8.91715 12.6756C9.02799 12.8197 9.33132 12.4027 9.74432 12.6756C9.95082 12.4027 9.97065 11.0242 9.95082 11.0457H9.33132Z" fill="#FFDF00" stroke="black" stroke-width="0.0668747"/>
<path fill-rule="evenodd" clip-rule="evenodd" d="M11.7642 14.0853C11.6081 14.1812 11.4311 14.2317 11.2509 14.2317C11.0708 14.2317 10.8938 14.1812 10.7376 14.0853V11.1569H11.422C11.0798 12.2543 11.0798 13.3537 11.7662 14.0853H11.7642Z" fill="#E10000" stroke="black" stroke-width="0.0999444"/>
<path fill-rule="evenodd" clip-rule="evenodd" d="M11.2223 11.2217C11.2223 13.2867 11.7181 13.7463 11.7181 14.1617C11.5116 14.1617 11.374 13.968 11.2223 13.702C11.0158 13.2867 10.996 11.189 11.0158 11.2217H11.2223Z" fill="#0000C4" stroke="black" stroke-width="0.0824958"/>
<path fill-rule="evenodd" clip-rule="evenodd" d="M11.6353 11.2217C11.6458 12.428 12.158 13.5457 12.0611 13.793C11.9515 14.0147 11.6353 13.2867 11.2223 13.6997C11.0158 13.2867 10.996 11.189 11.0158 11.2193L11.6353 11.2217Z" fill="#0000C4" stroke="black" stroke-width="0.0824958"/>
<path fill-rule="evenodd" clip-rule="evenodd" d="M11.589 11.0457C11.589 12.4027 12.0638 12.4931 12.0638 12.855C11.8573 12.855 11.5902 12.6572 11.589 12.6756C11.3825 12.4027 11.3627 11.0242 11.3825 11.0457H11.589Z" fill="#FFDF00" stroke="black" stroke-width="0.0668747"/>
<path fill-rule="evenodd" clip-rule="evenodd" d="M12.002 11.0457C12.0125 11.8384 12.513 12.5131 12.4162 12.6756C12.3053 12.8197 12.002 12.4027 11.589 12.6756C11.3825 12.4027 11.3627 11.0242 11.3825 11.0457H12.002Z" fill="#FFDF00" stroke="black" stroke-width="0.0668747"/>
<path fill-rule="evenodd" clip-rule="evenodd" d="M8.05442 11.3853L7.69562 11.6449L8.05442 11.9045L8.23362 11.7747L8.32322 11.9045L8.41282 12.1641L8.50282 11.9045L8.59242 11.7747H13.4V11.5151H8.59202L8.50242 11.3846C8.50242 11.2548 8.52122 11.125 8.59242 11.125H8.95082C8.95082 10.9952 8.77162 10.7356 8.41282 10.7356C8.05442 10.7356 7.87482 10.9952 7.87482 11.125H8.23362C8.30442 11.125 8.32322 11.2548 8.32322 11.3853L8.23362 11.5151L8.05442 11.3853Z" fill="#908F8A" stroke="black" stroke-width="0.0913954"/>
<path fill-rule="evenodd" clip-rule="evenodd" d="M9.10681 12.0146H12.2493V12.1739H9.10774L9.10681 12.0146ZM9.10681 11.8544H12.2493V12.0146H9.10774L9.10681 11.8544ZM9.10681 11.6951H12.2493V11.8553H9.10774L9.10681 11.6951ZM9.10681 11.5358H12.2493V11.6951H9.10774L9.10681 11.5358ZM9.10681 11.3765H12.2493V11.5358H9.10774L9.10681 11.3765ZM9.10681 11.2163H12.2493V11.3765H9.10774L9.10681 11.2163ZM9.10681 11.0579H12.2493V11.2163H9.10774L9.10681 11.0579Z" fill="#B74D00"/>
<path d="M12.2493 12.0146H9.10681L9.10774 12.1739H12.2493V12.0146ZM12.2493 12.0146V11.8544H9.10681L9.10774 12.0146H12.2493ZM12.2493 11.6951H9.10681L9.10774 11.8553H12.2493V11.6951ZM12.2493 11.6951V11.5358M12.2493 11.6951H9.10774L9.10681 11.5358H12.2493M12.2493 11.5358V11.3765M12.2493 11.5358H9.10774L9.10681 11.3765H12.2493M12.2493 11.3765V11.2163M12.2493 11.3765H9.10774L9.10681 11.2163H12.2493M12.2493 11.2163V11.0579H9.10681L9.10774 11.2163H12.2493Z" stroke="black" stroke-width="0.0618648"/>
<path fill-rule="evenodd" clip-rule="evenodd" d="M9.25671 11.0485L10.405 12.1645H10.5692L9.42171 11.0494H9.25755L9.25671 11.0485Z" fill="#908F8A" stroke="black" stroke-width="0.107171"/>
<path fill-rule="evenodd" clip-rule="evenodd" d="M9.25671 12.1982L10.405 11.0822H10.5692L9.42171 12.1973H9.25755L9.25671 12.1982Z" fill="#908F8A" stroke="black" stroke-width="0.107171"/>
<path fill-rule="evenodd" clip-rule="evenodd" d="M9.28857 11.0485V12.1645H9.45377V11.0485H9.28857Z" fill="#908F8A" stroke="black" stroke-width="0.106545"/>
<path fill-rule="evenodd" clip-rule="evenodd" d="M10.7333 11.0485L11.8817 12.1645H12.0458L10.8983 11.0494H10.7342L10.7333 11.0485Z" fill="#908F8A" stroke="black" stroke-width="0.107171"/>
<path fill-rule="evenodd" clip-rule="evenodd" d="M10.7333 12.1982L11.8817 11.0822H12.0458L10.8983 12.1973H10.7342L10.7333 12.1982Z" fill="#908F8A" stroke="black" stroke-width="0.107171"/>
<path fill-rule="evenodd" clip-rule="evenodd" d="M11.9152 11.0485V12.1645H12.0804V11.0485H11.9152Z" fill="#908F8A" stroke="black" stroke-width="0.106545"/>
<path fill-rule="evenodd" clip-rule="evenodd" d="M10.7686 11.0485V12.1645H10.9338V11.0485H10.7686Z" fill="#908F8A" stroke="black" stroke-width="0.106545"/>
<path fill-rule="evenodd" clip-rule="evenodd" d="M10.4352 11.0485V12.1645H10.6004V11.0485H10.4352Z" fill="#908F8A" stroke="black" stroke-width="0.106545"/>
<path fill-rule="evenodd" clip-rule="evenodd" d="M12.993 7.8626C12.993 9.68127 11.9181 11.1569 10.5957 11.1569C9.2733 11.1569 8.19836 9.68127 8.19836 7.8626C8.19836 6.04394 9.27136 4.56627 10.5957 4.56627C11.92 4.56627 12.993 6.04187 12.993 7.86054V7.8626ZM12.6508 7.8626C12.6508 9.47874 11.7306 10.7911 10.5957 10.7911C9.46083 10.7911 8.54056 9.47874 8.54056 7.8626C8.54056 6.2444 9.46083 4.93207 10.5957 4.93207C11.7306 4.93207 12.6508 6.2444 12.6508 7.8626Z" fill="#FFDF00" stroke="black" stroke-width="0.0999444"/>
<path fill-rule="evenodd" clip-rule="evenodd" d="M11.5295 4.82667C11.2415 4.65927 10.9263 4.56627 10.5957 4.56627C10.2651 4.56627 9.94999 4.65927 9.66193 4.8246L9.79726 5.16354C10.0404 5.01373 10.3161 4.93487 10.5967 4.93487C10.8773 4.93487 11.153 5.01373 11.3961 5.16354L11.5295 4.82667Z" fill="#FFDF00" stroke="black" stroke-width="0.0999444"/>
<path fill-rule="evenodd" clip-rule="evenodd" d="M11.5362 10.81C11.2481 10.9774 10.933 11.0704 10.6024 11.0704C10.2718 11.0704 9.95665 10.9774 9.66858 10.8121L9.80391 10.4731C10.047 10.6229 10.3227 10.7018 10.6033 10.7018C10.884 10.7018 11.1597 10.6229 11.4028 10.4731L11.5362 10.81Z" fill="#FFDF00" stroke="black" stroke-width="0.0999444"/>
<path fill-rule="evenodd" clip-rule="evenodd" d="M12.6533 7.86333C12.6533 9.47999 11.73 10.79 10.5967 10.79C9.46334 10.79 8.54333 9.47999 8.54333 7.86333C8.54333 6.24666 9.46334 4.92999 10.5967 4.92999C11.73 4.92999 12.6533 6.24333 12.6533 7.86333Z" fill="#A7CFFF"/>
<path fill-rule="evenodd" clip-rule="evenodd" d="M12.6508 7.86259C12.6721 8.41233 12.5619 8.68099 12.4208 9.25346C12.384 9.31546 12.2081 9.11913 12.1037 9.02199C11.9993 8.92486 11.9529 9.10879 11.8214 8.95999C11.6919 8.80706 11.6088 9.00133 11.5121 8.87319C11.4154 8.74506 10.5203 8.72853 10.5203 8.71613C10.6092 8.67066 11.0655 8.72026 10.992 8.48673C10.9089 8.24286 10.3927 8.47846 10.3231 8.16846C10.2748 7.85846 9.28683 7.84606 9.21529 7.77166C9.24429 7.88739 9.98476 7.93699 9.96736 8.23666C9.94996 8.36066 9.23849 8.39579 9.16889 8.49913C9.11089 8.62933 9.72956 8.46399 9.75082 8.62313C9.75082 8.68926 9.65996 8.62313 9.33903 8.72646C9.17663 8.77813 9.63676 8.93933 9.46276 9.02819C9.28876 9.11706 8.91562 9.15633 8.93109 9.19353C8.98909 9.37953 9.79529 9.59859 9.71603 9.62959C9.42989 9.76599 9.27909 9.85486 9.14182 9.93339C8.73962 9.3295 8.52891 8.60379 8.54056 7.86259C9.15343 7.62699 9.02389 7.57739 10.1568 7.57739C11.2898 7.57739 11.6648 7.62493 12.6508 7.86259Z" fill="#AFFF7B" stroke="black" stroke-width="0.0999444"/>
<path fill-rule="evenodd" clip-rule="evenodd" d="M12.6508 7.8626C12.4961 7.8626 12.3337 7.93286 12.1675 7.93286C11.9993 7.93286 11.8291 7.86053 11.6551 7.86053C11.4811 7.86053 11.282 7.9556 11.1041 7.9556C10.9243 7.9556 10.7677 7.8626 10.5879 7.8626C10.4081 7.8626 10.2283 7.93286 10.0505 7.93286C9.87259 7.93286 9.69666 7.86053 9.52459 7.86053C9.35253 7.86053 9.18239 7.93286 9.01806 7.93286C8.85373 7.93286 8.69326 7.86053 8.54053 7.86053C8.54053 7.45753 8.59853 7.07313 8.70293 6.7218C9.22493 6.76313 8.91559 6.39733 9.22493 6.39733C9.31523 6.3921 9.40554 6.40746 9.48987 6.44238C9.57419 6.47729 9.65061 6.53098 9.71406 6.59986C9.76046 6.59986 9.99246 6.36426 10.2535 6.39733C10.5125 6.4304 10.4178 6.96153 10.7639 6.9884C10.9379 7.12893 11.0403 7.2178 11.2801 7.27566C11.6223 7.30873 12.6025 7.224 12.6083 7.27153C12.6365 7.46711 12.6507 7.66471 12.6508 7.8626Z" fill="white" stroke="black" stroke-width="0.0999444"/>
<path fill-rule="evenodd" clip-rule="evenodd" d="M10.906 9.56734C10.906 9.47614 10.996 9.41534 10.996 9.26974C10.996 9.12414 10.916 9.12094 10.9133 8.98494C10.912 8.92894 10.982 8.87294 11.0127 8.86654C11.0433 8.86014 11.0693 8.98494 11.0693 9.01214C11.0693 9.03934 11.038 8.94494 11.012 8.94334C10.986 8.94174 10.93 8.95294 10.93 8.98014C10.93 9.03454 11.0287 9.10174 11.0213 9.28414C11.014 9.46334 10.9367 9.51774 10.9367 9.57214C10.9367 9.62654 10.97 9.77694 10.97 9.77694C10.97 9.77694 10.9053 9.65694 10.9053 9.56574L10.906 9.56734Z" fill="black" stroke="black" stroke-width="0.0516398"/>
<path fill-rule="evenodd" clip-rule="evenodd" d="M11.194 9.554C11.194 9.4628 11.104 9.402 11.104 9.2564C11.104 9.1108 11.184 9.1076 11.1866 8.9716C11.1933 8.9076 11.108 8.866 11.0773 8.8612C11.0466 8.8564 11.0106 8.9892 11.0106 9.0148C11.0106 9.0404 11.0466 8.9316 11.0726 8.93C11.0986 8.9284 11.17 8.9396 11.17 8.9668C11.17 9.0212 11.0713 9.0884 11.0786 9.2708C11.086 9.45 11.1633 9.5044 11.1633 9.5588C11.1633 9.6132 11.13 9.7636 11.13 9.7636C11.13 9.7636 11.1946 9.6436 11.1946 9.5524L11.194 9.554Z" fill="black" stroke="black" stroke-width="0.0516398"/>
<path fill-rule="evenodd" clip-rule="evenodd" d="M11.1 8.83001C11.1 8.87334 11.0767 8.91001 11.05 8.91001C11.0234 8.91001 11.0034 8.87334 11.0034 8.82667C11.0034 8.78001 11.0234 8.74667 11.05 8.74667C11.0767 8.74667 11.1 8.78334 11.1 8.83001ZM11.6667 9.13001H11.68V9.78001H11.6634L11.6667 9.13001ZM11.8034 9.07667H11.82V9.73334H11.8034V9.07667Z" fill="black"/>
<path fill-rule="evenodd" clip-rule="evenodd" d="M11.7534 9.37334V9.35667L11.8867 9.38001V9.39667L11.7534 9.37334Z" fill="black"/>
<path fill-rule="evenodd" clip-rule="evenodd" d="M9.84782 9.562C9.84782 9.562 10.3505 9.7976 10.4607 9.93813C10.569 10.0787 10.5264 10.0787 10.5264 10.0787L11.642 10.1262C11.642 10.0559 11.8392 10.0559 11.8836 9.8906C11.9281 9.72733 11.9281 9.6798 11.9281 9.6798L11.5782 9.7976L11.5975 9.5868H11.292L11.2476 9.7976L10.5902 9.77486L10.6347 9.21066L10.5032 9.2334L10.4839 9.77073C10.4607 9.77073 9.86909 9.60746 9.84589 9.562H9.84782Z" fill="#B74D00" stroke="black" stroke-width="0.0999444"/>
<path fill-rule="evenodd" clip-rule="evenodd" d="M8.8363 6.19687C8.8363 6.19687 9.56517 5.9654 10.6169 5.98193C11.6686 5.99847 12.3975 6.24647 12.382 6.24647C12.3666 6.24647 12.181 5.8662 12.181 5.8662C12.181 5.8662 11.4386 5.6492 10.6014 5.63267C9.76624 5.61614 9.03737 5.798 9.05477 5.81453L8.8363 6.19687Z" fill="#FEDE00" stroke="#FEDE00" stroke-width="0.0999444"/>
<path fill-rule="evenodd" clip-rule="evenodd" d="M10.2 5.66L10.6533 5.65333L10.66 5.91667L10.2067 5.92667L10.2 5.66ZM9.16 5.80333L9 6.06667L9.54 6L9.49667 5.74333L9.16 5.81V5.80333ZM9.61667 5.70333L10.07 5.66667L10.09 5.92667L9.64 5.96667L9.61667 5.70333ZM11.2467 5.68L10.7967 5.64667L10.78 5.91333L11.23 5.94L11.2467 5.68ZM12.22 5.84667L12.3833 6.16667L11.8967 6.04667L11.95 5.79L12.2167 5.84333L12.22 5.84667ZM11.8267 5.74667L11.38 5.69L11.3467 5.95L11.7967 6.01L11.8267 5.74667Z" fill="#38A9F9"/>
<path fill-rule="evenodd" clip-rule="evenodd" d="M10.6169 6.34566L10.5686 6.06666L10.4216 6.30433L10.4758 6.02533L10.2573 6.18446L10.4042 5.95093L10.1452 6.0088L10.3675 5.85173L10.1065 5.80006L10.3675 5.74633L10.1452 5.58926L10.4042 5.64713L10.2554 5.4136L10.4758 5.57273L10.4216 5.29373L10.5686 5.5314L10.6169 5.2524L10.6672 5.5314L10.8122 5.29373L10.76 5.57273L10.9784 5.4136L10.8296 5.64713L11.0906 5.58926L10.8682 5.74633L11.1292 5.80006L10.8682 5.85173L11.0906 6.0088L10.8296 5.95093L10.9784 6.18446L10.76 6.02533L10.8141 6.30433L10.6672 6.06666L10.6169 6.34566Z" fill="#FFDF00" stroke="black" stroke-width="0.0999444"/>
<path fill-rule="evenodd" clip-rule="evenodd" d="M11.003 5.625C11.003 5.78 10.8776 5.905 10.7218 5.905C10.566 5.905 10.4406 5.78 10.4406 5.625C10.4406 5.47 10.566 5.34334 10.7218 5.34334C10.8776 5.34334 11.003 5.47 11.003 5.62667V5.625Z" fill="#FFDF00" stroke="black" stroke-width="0.0889757"/>
<path fill-rule="evenodd" clip-rule="evenodd" d="M10.69 5.68667C10.69 5.70334 10.6467 5.72 10.5967 5.72C10.5467 5.72 10.5034 5.70334 10.5034 5.68667C10.5034 5.67 10.5434 5.65334 10.5967 5.65334C10.65 5.65334 10.69 5.66667 10.69 5.68667ZM10.89 5.68667C10.89 5.70334 10.86 5.72 10.8234 5.72C10.7867 5.72 10.75 5.70334 10.75 5.68667C10.75 5.66667 10.7834 5.65334 10.82 5.65334C10.8567 5.65334 10.89 5.66667 10.89 5.68667Z" fill="black"/>
<path d="M10.6802 5.8016L10.6997 5.8128C10.6529 5.7842 10.6742 5.7948 10.7477 5.8672C10.7897 5.8428 10.7976 5.8206 10.8237 5.7904" stroke="black" stroke-width="0.100943"/>
<path d="M10.4941 5.94887L10.5096 5.9654C10.4729 5.92407 10.4903 5.94474 10.5715 5.99847C10.6488 6.0088 10.7281 5.97367 10.7745 5.9158" stroke="black" stroke-width="0.0999444"/>
<path fill-rule="evenodd" clip-rule="evenodd" d="M9.38003 6.49333C9.38003 6.49333 9.41336 6.76 9.21003 7.09333C9.01003 7.42333 9.04003 7.30667 9.04003 7.30667C9.04003 7.30667 9.13336 7.49 9.1167 7.49C9.10003 7.49 8.96003 7.32333 8.96003 7.32333L8.79336 7.50666C8.79336 7.50666 8.9467 7.22333 8.93003 7.22333C8.91336 7.22333 8.88336 7.12333 8.88336 7.12333L9.0067 7.07333C9.0067 7.07333 9.19336 6.72667 9.19336 6.74333C9.19336 6.76 8.6367 7.12333 8.6367 7.12333L9.38003 6.49333ZM9.50336 6.59333C9.4867 6.59333 9.58003 6.86 9.66003 6.99333C9.7367 7.12667 9.7367 7.29 9.7367 7.29L10 7.42333L9.66003 6.91L9.8767 6.99L9.50336 6.59333ZM9.50336 7.29C9.50336 7.29 9.69003 7.49 9.70336 7.55666C9.7167 7.62333 9.72003 7.77 9.72003 7.77L9.64336 7.60333L9.53336 7.75333C9.53336 7.75333 9.61336 7.52 9.5967 7.50333C9.58003 7.48667 9.47336 7.58667 9.47336 7.58667C9.47336 7.58667 9.52003 7.45333 9.52003 7.44C9.52003 7.42667 9.52003 7.34 9.50336 7.29ZM8.57336 7.75333C8.6367 7.70333 8.76003 7.67 8.76003 7.67C8.76003 7.67 8.68336 7.80333 8.6667 7.80333C8.65003 7.80333 8.6067 7.80333 8.57336 7.75333ZM10.71 7.02667C10.71 7.02667 11.1134 7.27333 11.1134 7.29C11.1134 7.30667 10.85 7.17333 10.85 7.17333L10.71 7.02667ZM9.98336 6.51C10.0167 6.52667 10.5734 6.99 10.5567 6.99C10.54 6.99 10.31 6.85667 10.31 6.87667V6.99L10.1834 6.72667L10.1534 6.82667L9.98336 6.51ZM10.1234 7.25666L10.2767 7.57L10.4334 7.53667C10.4334 7.53667 10.14 7.25666 10.1234 7.25666ZM10.6034 7.05667L10.62 7.35667C10.62 7.35667 10.71 7.44 10.71 7.42333C10.71 7.40666 10.62 7.07333 10.6034 7.05667Z" fill="#B7E1FF"/>
<path fill-rule="evenodd" clip-rule="evenodd" d="M6.08667 2.98334C6.08667 2.98334 6.78667 2.59667 7.58334 2.31C8.16948 2.09468 8.77428 1.93399 9.39 1.83C9.62334 1.83 10.03 2.42334 10.0967 2.42334C10.1633 2.42334 10.4333 2.25667 10.7733 2.25667C11.1133 2.25667 11.31 2.52334 11.38 2.52334H11.9867C12.0533 2.52334 11.7833 1.86334 11.9867 1.89667C12.0867 1.91334 12.9467 2.04667 13.7467 2.30334C14.5467 2.56334 15.68 3.02334 15.68 3.02334C15.68 3.02334 13.83 3.26667 13.3333 3.19667C13.2667 3.23 13.3333 3.63 13.2333 3.45334C13.08 3.42 12.51 3.33 12.41 3.33C12.31 3.33 12.12 3.44334 11.85 3.51C11.5833 3.57667 11.2433 3.67667 11.2433 3.67667L11.6833 4.36667L11.1433 4.63334C11.1433 4.63334 10.8067 3.84 10.67 3.84C10.5333 3.84 10.47 4.4 10.3 4.36667C10.1333 4.33334 10.0667 3.84 9.93 3.70667C9.79667 3.57667 9.08334 3.52667 8.81334 3.46334C8.54667 3.39667 8.11 3.34667 7.87334 3.28C7.64 3.21334 7.4 3.44667 7.3 3.44667C7.2 3.44667 7.43334 3.24667 7.33334 3.21334C7.23334 3.18 7.16667 3.31334 7.1 3.31334C7.03334 3.31334 6.32334 3.18 6.25667 3.14667C6.19 3.11334 6.42334 2.98334 6.35667 2.98334H6.08667Z" fill="#984000"/>
<path fill-rule="evenodd" clip-rule="evenodd" d="M11.1153 2.65333C11.1153 2.83706 10.9643 2.98613 10.7787 2.98613C10.5932 2.98613 10.4429 2.83706 10.4429 2.65333C10.4429 2.4696 10.5932 2.3214 10.7787 2.3214C10.9643 2.3214 11.1153 2.47046 11.1153 2.65333Z" fill="#808080" stroke="#772600" stroke-width="0.110614"/>
<path fill-rule="evenodd" clip-rule="evenodd" d="M9.409 2.71666C9.4693 2.64626 9.544 2.53959 9.7393 2.53959C9.7843 2.52146 9.7843 2.41479 9.8887 2.41479C9.994 2.41479 9.9634 2.52146 10.039 2.55773C10.1137 2.59293 10.7284 2.52146 10.7284 2.52146C10.7284 2.52146 10.7878 2.57479 10.7878 2.64626C10.7878 2.71773 10.7428 2.76999 10.7284 2.76999C10.714 2.76999 10.1137 2.71666 10.0687 2.73479C10.0237 2.75293 9.994 2.76999 9.8887 2.76999C9.7843 2.76999 9.7537 2.64626 9.679 2.64626C9.6043 2.64626 9.5296 2.62813 9.409 2.71773V2.71666Z" fill="#984000" stroke="#772600" stroke-width="0.194734"/>
<path d="M11.2378 2.67961H11.4772C11.5636 2.68067 11.5933 2.71161 11.6725 2.71481H11.8822C11.9587 2.71161 11.9992 2.69027 12.0766 2.67961C12.2071 2.67747 12.163 2.66574 12.1369 2.57294C12.1135 2.50361 12.1099 2.47054 12.0766 2.43107C12.064 2.34574 12.0352 2.31587 12.0316 2.21774C12.0181 2.14307 11.9929 2.09294 12.0172 2.00441C12.0514 2.06521 12.0649 2.08974 12.1522 2.09401C12.2422 2.09401 12.2773 2.09081 12.3322 2.12921C12.3736 2.18147 12.4294 2.16441 12.5122 2.16441C12.5806 2.17934 12.5923 2.22094 12.6463 2.25294C12.7102 2.29561 12.7516 2.30627 12.8407 2.30627C12.9127 2.32227 12.9757 2.33401 13.0207 2.35961C13.0594 2.41401 13.1197 2.42787 13.2007 2.43107C13.2457 2.43107 13.2817 2.42574 13.3204 2.41294C13.3897 2.41721 13.4599 2.41294 13.5454 2.41294C13.6012 2.48974 13.6138 2.51854 13.7101 2.51961C13.7767 2.57507 13.8325 2.58361 13.8901 2.60814H14.1151C14.1961 2.61561 14.2213 2.65507 14.2951 2.67961C14.3584 2.71352 14.4233 2.74308 14.4895 2.76814C14.5539 2.78196 14.6193 2.78804 14.6848 2.78627C14.7397 2.82041 14.8072 2.82254 14.8495 2.85667C14.9116 2.87267 14.9962 2.89187 15.0439 2.91001C15.1231 2.92281 15.1537 2.95267 15.2239 2.96334C15.2842 2.98467 15.2041 3.00174 15.1636 3.01667C15.0754 3.01347 15.0691 2.97401 14.9836 2.96334C14.9386 2.93241 14.8702 2.93667 14.8036 2.91001H14.7892C14.8486 2.95267 14.9062 2.97934 14.8792 3.05294C14.8027 3.05294 14.7406 3.04121 14.6695 3.03481C14.5939 3.01774 14.5597 2.99961 14.4751 2.99961C14.5597 2.97507 14.5813 3.00174 14.6398 3.03481C14.6614 3.12014 14.6146 3.08814 14.5345 3.08814C14.4661 3.05934 14.4247 3.02414 14.3401 3.01667H14.1601C14.2492 3.02094 14.2681 3.06041 14.3248 3.10627C14.3293 3.13401 14.3239 3.13187 14.2798 3.14147C14.233 3.09347 14.1727 3.07747 14.0998 3.05294C14.0287 3.04974 13.954 3.04227 13.8901 3.01667C13.846 3.01347 13.8532 2.95161 13.9504 3.05294C14.0089 3.09347 14.0296 3.12761 14.0251 3.15961C13.9477 3.13614 13.9099 3.09987 13.8604 3.07001C13.7931 3.04233 13.7218 3.03038 13.6507 3.03481C13.5733 3.01027 13.6588 2.99641 13.7101 3.08814C13.8217 3.18201 13.6957 3.14147 13.6507 3.12334C13.5832 3.10094 13.513 3.06787 13.4554 3.05294C13.4104 3.03694 13.3708 3.02201 13.3204 3.01667C13.3987 3.02521 13.4248 3.05827 13.4554 3.12334C13.5346 3.18734 13.4518 3.15641 13.3807 3.14147C13.3357 3.09454 13.2772 3.07001 13.2457 3.01667C13.171 2.97294 13.1683 2.92067 13.216 3.03481C13.2277 3.07107 13.225 3.15001 13.2304 3.15961C13.1755 3.08814 13.1872 3.07001 13.126 3.07001C13.0837 3.03587 13.0225 3.00921 12.991 2.96334C12.9334 2.95694 12.9298 2.93241 12.8713 2.91001C12.919 2.97721 12.9829 3.04334 13.0207 3.10627C13.0891 3.15107 13.108 3.19161 13.1557 3.23001C13.1746 3.26947 13.2277 3.30147 13.171 3.24814C13.1062 3.17347 13.0585 3.15534 12.9613 3.10627C12.9055 3.05294 12.8857 3.03161 12.8263 2.98147C12.7453 2.95054 12.7768 2.93347 12.8263 3.03481C12.883 3.09667 12.9262 3.16494 12.9757 3.21294C13.0145 3.2679 13.06 3.31571 13.1107 3.35481C13.1242 3.37827 13.1647 3.38254 13.1107 3.39001C13.0657 3.34094 12.9991 3.31001 12.946 3.26521C12.8713 3.24067 12.8362 3.19481 12.7813 3.14147C12.7453 3.07854 12.6877 3.03054 12.6463 2.98147C12.5599 2.94094 12.6634 3.01987 12.6913 3.07001C12.7102 3.13507 12.7345 3.18734 12.7507 3.24814C12.7759 3.30681 12.6751 3.23427 12.6463 3.21294C12.5871 3.16747 12.5206 3.13697 12.451 3.12334C12.3913 3.10919 12.3313 3.09745 12.271 3.08814C12.2035 3.06681 12.3079 3.13934 12.3466 3.21294C12.4222 3.29721 12.2719 3.22787 12.2269 3.21294C12.1526 3.19798 12.0772 3.1919 12.0019 3.19481C11.9056 3.20121 11.9749 3.21614 12.0019 3.26521C12.0316 3.29294 12.0523 3.35054 12.0469 3.37187C11.9839 3.36121 11.9299 3.33987 11.8516 3.33667C11.7886 3.36121 11.7139 3.35481 11.6419 3.35481C11.6392 3.39961 11.6554 3.36121 11.6869 3.40814C11.7391 3.43267 11.7733 3.46254 11.7625 3.49667H11.3278C11.2801 3.51161 11.3377 3.50414 11.3728 3.56814C11.353 3.62574 11.3278 3.60334 11.2675 3.60334C11.227 3.58414 11.1451 3.57561 11.1028 3.55001C11.0605 3.55001 11.0641 3.53721 11.0281 3.53187C11.1541 3.63854 11.0911 3.61187 11.1631 3.69187C11.1748 3.69721 11.2036 3.71001 11.1775 3.71001M10.1884 4.27854C10.1794 4.27854 10.1596 4.22094 10.129 4.17187C10.1074 4.10787 10.0804 4.14414 10.0534 4.04707C10.057 3.94681 10.0597 3.92974 10.0534 3.83374C9.99218 3.78254 9.96608 3.76761 9.91838 3.67374C9.84278 3.59907 9.93008 3.47107 9.94448 3.37721C9.87788 3.36014 9.84548 3.49987 9.74378 3.55001C9.66998 3.60867 9.73478 3.42841 9.69878 3.32387C9.67448 3.17561 9.60158 3.39854 9.57458 3.46147C9.52508 3.50094 9.50978 3.55214 9.43958 3.47854C9.43958 3.42414 9.48368 3.27054 9.46478 3.24067C9.39458 3.28227 9.30278 3.40601 9.22988 3.42521C9.15608 3.40707 9.24518 3.26734 9.24518 3.16387C9.21818 3.15321 9.11288 3.43907 9.06968 3.44121C9.02648 3.44334 9.04538 3.16387 9.02468 3.17027C8.99318 3.22361 8.92928 3.33454 8.88518 3.37294C8.79968 3.35907 8.89778 3.18627 8.91038 3.12227C8.92478 3.04547 8.83028 3.26947 8.77988 3.28334C8.74298 3.32174 8.67008 3.34734 8.64488 3.35481C8.67368 3.28867 8.81588 3.15534 8.80688 3.11694C8.72318 3.12014 8.59628 3.25027 8.52518 3.26627C8.47838 3.26627 8.41358 3.28441 8.40548 3.28334C8.40908 3.19801 8.58008 3.12761 8.60708 3.07534C8.52338 3.09134 8.36228 3.17881 8.31548 3.24814C8.25968 3.26201 8.18948 3.28014 8.13548 3.24814C8.14358 3.16814 8.26958 3.01347 8.29748 2.96227C8.22098 3.00174 8.18318 3.03267 8.10218 3.05081C8.08688 3.06894 8.04368 3.10734 8.05718 3.06894C8.08148 2.99427 8.11748 2.96227 8.14718 2.90894C8.07968 2.92387 8.05448 2.96974 7.98248 3.01561C7.93658 3.01774 7.80518 3.17454 7.76108 3.17667C7.68645 3.24641 7.59932 3.29494 7.50638 3.31854C7.43798 3.33347 7.40468 3.35054 7.37138 3.39001C7.40558 3.31854 7.45778 3.25134 7.50638 3.21294C7.53605 3.14819 7.58377 3.09767 7.64138 3.07001C7.65848 3.04547 7.70528 3.03907 7.65578 3.03481C7.61348 3.07961 7.54148 3.13081 7.50638 3.15961C7.46048 3.19374 7.40738 3.22787 7.38578 3.21294C7.41008 3.13614 7.45328 3.11694 7.49108 3.05294C7.57028 2.99321 7.49108 3.03161 7.43078 3.05294C7.39208 3.09347 7.32278 3.12441 7.26608 3.15961C7.20308 3.17881 7.16078 3.22361 7.08608 3.24814C7.08608 3.27374 7.10768 3.20227 7.11668 3.17667C7.17788 3.09774 7.19408 3.07534 7.26608 3.05294C7.28408 3.02201 7.30568 3.03481 7.25168 3.03481C7.21028 3.07747 7.15448 3.10094 7.10138 3.14147C7.04828 3.15534 6.97898 3.15961 6.90698 3.15961C6.81338 3.17241 6.82148 3.18094 6.90698 3.12334C6.95468 3.07001 6.99428 3.08387 6.99698 3.01667C6.94028 3.06574 6.87098 3.10201 6.80168 3.14147C6.74408 3.14361 6.72878 3.15961 6.66668 3.15961C6.69638 3.12334 6.71438 3.07747 6.75668 3.05294C6.81968 2.97081 6.71708 3.03694 6.69638 3.05294H6.47138C6.43178 3.11267 6.46958 3.05294 6.50198 3.01667C6.54068 2.99321 6.58118 2.96227 6.57668 2.94627C6.53168 2.99214 6.48038 3.01347 6.44168 3.05294C6.40028 3.06787 6.35168 3.07427 6.35168 3.08814C6.38498 3.03161 6.43808 2.99641 6.47228 2.94627C6.52268 2.93347 6.56588 2.91427 6.57668 2.89294H6.36698H6.51638C6.59288 2.89294 6.65768 2.88441 6.72698 2.87481C6.84578 2.85134 6.71618 2.83961 6.65138 2.83961C6.63968 2.81187 6.68918 2.79694 6.74138 2.78627C6.78638 2.76067 6.84308 2.73827 6.89168 2.71481C6.93459 2.69932 6.97503 2.67553 7.01138 2.64441C6.96638 2.64654 6.96638 2.65934 6.92138 2.66147C6.98888 2.65614 7.03658 2.64441 7.11668 2.64441C7.18265 2.61863 7.24753 2.58909 7.31108 2.55587C7.33808 2.51747 7.34888 2.51961 7.28138 2.51961C7.34168 2.49721 7.42718 2.48547 7.47578 2.46627C7.53782 2.45087 7.5982 2.42726 7.65578 2.39587C7.69988 2.36067 7.72508 2.31907 7.77548 2.28921C7.83398 2.33614 7.83488 2.34254 7.94018 2.34254C8.02478 2.34147 8.07698 2.31694 8.12018 2.27107C8.18498 2.24974 8.19668 2.21347 8.27048 2.20067C8.33983 2.21358 8.41 2.2193 8.48018 2.21774C8.55218 2.19534 8.62148 2.15374 8.67458 2.11107C8.72048 2.08441 8.77538 2.04601 8.82488 2.02254C8.87888 2.05561 8.92208 2.08227 8.98958 2.09401C9.05888 2.08121 9.09578 2.04067 9.15428 2.02254C9.19037 1.97703 9.23758 1.94606 9.28928 1.93401C9.37658 1.88281 9.37028 1.95001 9.40898 2.00441C9.45398 2.05987 9.51158 2.03321 9.57368 2.05774C9.60878 2.12174 9.63398 2.16441 9.67898 2.19961C9.71408 2.25081 9.75548 2.26361 9.82928 2.27107C9.85628 2.31374 9.83468 2.34361 9.88868 2.35961C9.91028 2.38734 9.94718 2.39801 9.97868 2.41294" stroke="#772600" stroke-width="0.128598"/>
<path d="M11.065 3.8252V3.83373C11.065 3.8092 11.065 3.82307 11.0803 3.87C11.0857 3.9084 11.0731 3.90413 11.0578 3.93187C11.0551 3.97133 11.0506 4.00013 11.0506 4.04707C11.0452 4.08547 11.0272 4.12173 11.0128 4.15373C10.9984 4.1868 10.9363 4.206 10.9381 4.25187C10.9021 4.2636 10.9012 4.23587 10.9003 4.18893C10.8787 4.16013 10.8715 4.12067 10.8553 4.08227C10.8463 4.046 10.8247 4.01827 10.8103 3.9756C10.7887 3.93613 10.7698 3.9244 10.7509 3.87853C10.7428 3.8572 10.7446 3.82947 10.7284 3.81667C10.7041 3.77933 10.6879 3.774 10.6456 3.77187C10.6132 3.7804 10.6006 3.79747 10.5709 3.80707C10.5475 3.81667 10.5025 3.81347 10.4737 3.8252C10.4665 3.83907 10.4881 3.84653 10.4962 3.87853C10.4764 3.89773 10.4692 3.9308 10.4584 3.95853C10.4404 3.9852 10.4287 3.998 10.4206 4.03853C10.4332 4.06307 10.4224 4.09613 10.4062 4.11853C10.4008 4.15907 10.3837 4.18147 10.3756 4.2156C10.3522 4.23587 10.3432 4.254 10.3234 4.28707C10.3063 4.31587 10.291 4.31373 10.2487 4.31373C10.2154 4.30307 10.2109 4.28173 10.1812 4.26893C10.1785 4.25827 10.1758 4.25507 10.1659 4.25187" stroke="#782600" stroke-width="0.113901"/>
<path fill-rule="evenodd" clip-rule="evenodd" d="M10.2533 4.18333C10.2533 4.18333 10.24 4.35 10.1333 4.46C10.0266 4.57 9.80664 4.69667 9.80664 4.69667C9.80664 4.69667 10.1033 4.55667 10.1333 4.58667C10.1666 4.62 9.94331 4.86333 9.94331 4.86333C9.94331 4.86333 10.2333 4.60667 10.27 4.60667C10.3066 4.60667 10.39 4.85667 10.4233 4.85C10.4533 4.84333 10.3566 4.53333 10.37 4.48333C10.3833 4.43667 10.37 4.17333 10.37 4.17333L10.2566 4.18333H10.2533ZM10.9366 4.16333C10.9366 4.16333 10.9233 4.34 10.8166 4.45667C10.71 4.57333 10.49 4.71 10.49 4.71C10.49 4.71 10.7866 4.56 10.8166 4.59333C10.85 4.62667 10.6266 4.88667 10.6266 4.88667C10.6266 4.88667 10.9166 4.61333 10.9533 4.61333C10.99 4.61333 11.0733 4.88 11.1066 4.87333C11.1366 4.86667 11.04 4.53333 11.0533 4.48333C11.0666 4.43 11.0533 4.15 11.0533 4.15L10.9366 4.16333ZM9.97997 2.56333C9.97997 2.59333 9.94664 2.62 9.90997 2.62C9.87331 2.62 9.83664 2.59333 9.83664 2.56C9.83664 2.52667 9.86997 2.5 9.90997 2.5C9.94997 2.5 9.97997 2.52667 9.97997 2.56V2.56333Z" fill="#812E00"/>
</g>
<defs>
<clipPath id="clip0_39_3533">
<rect width="21.3333" height="16" fill="white"/>
</clipPath>
</defs>
</svg>
