<svg width="16" height="17" viewBox="0 0 16 17" fill="none" xmlns="http://www.w3.org/2000/svg">
<path d="M6.48341 8.15925L11.3834 13.0593C11.5501 13.2259 11.6306 13.4204 11.6251 13.6426C11.6195 13.8648 11.5334 14.0593 11.3667 14.2259C11.2001 14.3926 11.0056 14.4759 10.7834 14.4759C10.5612 14.4759 10.3667 14.3926 10.2001 14.2259L5.06675 9.10925C4.93341 8.97592 4.83341 8.82592 4.76675 8.65925C4.70008 8.49259 4.66675 8.32592 4.66675 8.15925C4.66675 7.99259 4.70008 7.82592 4.76675 7.65925C4.83341 7.49259 4.93341 7.34259 5.06675 7.20925L10.2001 2.07592C10.3667 1.90925 10.564 1.8287 10.7917 1.83425C11.0195 1.83981 11.2167 1.92592 11.3834 2.09259C11.5501 2.25925 11.6334 2.4537 11.6334 2.67592C11.6334 2.89814 11.5501 3.09259 11.3834 3.25925L6.48341 8.15925Z" fill="#9CF3E6"/>
</svg>
