<svg width="25" height="24" viewBox="0 0 25 24" fill="none" xmlns="http://www.w3.org/2000/svg">
<path d="M12.2857 14.475L8.66074 10.85C8.61074 10.8 8.57324 10.7458 8.54824 10.6875C8.52324 10.6292 8.51074 10.5667 8.51074 10.5C8.51074 10.3667 8.55658 10.25 8.64824 10.15C8.73991 10.05 8.86074 10 9.01074 10H16.6107C16.7607 10 16.8816 10.05 16.9732 10.15C17.0649 10.25 17.1107 10.3667 17.1107 10.5C17.1107 10.5333 17.0607 10.65 16.9607 10.85L13.3357 14.475C13.2524 14.5583 13.1691 14.6167 13.0857 14.65C13.0024 14.6833 12.9107 14.7 12.8107 14.7C12.7107 14.7 12.6191 14.6833 12.5357 14.65C12.4524 14.6167 12.3691 14.5583 12.2857 14.475Z" fill="#E4E4E7"/>
</svg>
