<svg width="20" height="16" viewBox="0 0 20 16" fill="none" xmlns="http://www.w3.org/2000/svg">
<path d="M11.9999 16C10.8999 16 9.95822 15.6083 9.17489 14.825C8.39155 14.0417 7.99989 13.1 7.99989 12C7.99989 10.9 8.39155 9.95833 9.17489 9.175C9.95822 8.39167 10.8999 8 11.9999 8C12.3832 8 12.7374 8.04583 13.0624 8.1375C13.3874 8.22917 13.6999 8.36667 13.9999 8.55V1C13.9999 0.716667 14.0957 0.479167 14.2874 0.2875C14.4791 0.0958333 14.7166 0 14.9999 0H18.9999C19.2832 0 19.5207 0.0958333 19.7124 0.2875C19.9041 0.479167 19.9999 0.716667 19.9999 1V2C19.9999 2.28333 19.9041 2.52083 19.7124 2.7125C19.5207 2.90417 19.2832 3 18.9999 3H15.9999V12C15.9999 13.1 15.6082 14.0417 14.8249 14.825C14.0416 15.6083 13.0999 16 11.9999 16ZM4.94989 4.925C4.14989 5.725 3.49989 6.6375 2.99989 7.6625C2.49989 8.6875 2.18322 9.78333 2.04989 10.95C2.01655 11.2333 1.90405 11.4792 1.71239 11.6875C1.52072 11.8958 1.28322 12 0.999888 12C0.716555 12 0.479055 11.8917 0.287388 11.675C0.0957212 11.4583 0.0165545 11.2083 0.0498879 10.925C0.183221 9.475 0.554054 8.12083 1.16239 6.8625C1.77072 5.60417 2.55822 4.49167 3.52489 3.525C4.49155 2.55833 5.60405 1.77083 6.86239 1.1625C8.12072 0.554167 9.47489 0.183333 10.9249 0.05C11.2082 0.0166667 11.4582 0.0958333 11.6749 0.2875C11.8916 0.479167 11.9999 0.716667 11.9999 1C11.9999 1.28333 11.8957 1.52083 11.6874 1.7125C11.4791 1.90417 11.2332 2.01667 10.9499 2.05C9.78322 2.18333 8.69156 2.49583 7.67489 2.9875C6.65822 3.47917 5.74989 4.125 4.94989 4.925ZM7.77489 7.75C7.34155 8.18333 6.97489 8.67917 6.67489 9.2375C6.37489 9.79583 6.17489 10.3917 6.07489 11.025C6.02489 11.3083 5.90405 11.5417 5.71239 11.725C5.52072 11.9083 5.28322 12 4.99989 12C4.71655 12 4.48322 11.8958 4.29989 11.6875C4.11655 11.4792 4.04155 11.2333 4.07489 10.95C4.19155 10.05 4.44572 9.2125 4.83739 8.4375C5.22905 7.6625 5.73322 6.96667 6.34989 6.35C6.96655 5.73333 7.66239 5.22917 8.43739 4.8375C9.21239 4.44583 10.0499 4.19167 10.9499 4.075C11.2332 4.04167 11.4791 4.11667 11.6874 4.3C11.8957 4.48333 11.9999 4.71667 11.9999 5C11.9999 5.28333 11.9082 5.52083 11.7249 5.7125C11.5416 5.90417 11.3082 6.025 11.0249 6.075C10.3916 6.175 9.79989 6.37083 9.24989 6.6625C8.69989 6.95417 8.20822 7.31667 7.77489 7.75Z" fill="#A1A1AA"/>
</svg>
