<svg width="209" height="40" viewBox="0 0 209 40" fill="none" xmlns="http://www.w3.org/2000/svg">
<path d="M20.6468 22.0899L22.743 25.8369C22.072 26.0289 21.3258 26.2961 20.8309 26.5059C18.1212 27.652 16.3734 29.1919 15.6331 31.0782C15.0136 32.6578 15.2471 34.0928 15.5282 34.9737C15.35 34.9816 12.3691 35.1874 10.9558 34.3066C10.8786 33.6178 10.8569 33.0042 10.9044 32.1036C11.1399 27.6896 13.3984 24.8254 16.7712 23.2855C17.2146 23.0836 17.557 22.7095 17.7095 22.2502C17.8619 21.793 17.8124 21.2902 17.5788 20.8706C17.274 20.3283 16.7 19.9898 16.0765 19.9898C15.833 19.9898 15.5955 20.0413 15.3718 20.1422C10.5125 22.3076 7.56913 26.1951 7.56913 31.5137C7.56913 32.0006 7.62851 32.6162 7.67997 33.0952C5.85697 32.2302 5.11668 31.4484 3.79248 29.9579C3.78654 29.9401 3.78456 29.9223 3.78258 29.9084C3.67372 29.1741 3.6183 28.4199 3.6183 27.6638C3.6183 21.6149 6.14596 16.6625 11.6763 14.1744C12.1098 13.9784 12.4463 13.6083 12.5948 13.157C12.7432 12.7077 12.6957 12.2148 12.4641 11.8011C12.1633 11.2647 11.5972 10.9342 10.9855 10.9342C10.748 10.9342 10.5184 10.9836 10.3026 11.0787C4.68716 13.5964 1.54391 18.2123 0.558183 24.0594C0.193979 22.7649 0 21.4011 0 19.9918C0 11.7121 6.71206 5 14.9918 5C19.6512 5 23.8139 7.12585 26.5632 10.4611C24.1979 9.42588 21.6247 8.88353 19.0198 8.88353C18.3092 8.88353 17.5966 8.92312 16.8979 9.00031C16.2467 9.07355 15.5955 9.18242 14.9621 9.32295C14.6533 9.39025 14.4019 9.59413 14.2733 9.88311C14.1426 10.1721 14.1585 10.4947 14.3129 10.7719L15.2016 12.3554L20.4984 21.8247L20.6488 22.0899H20.6468Z" fill="url(#paint0_linear_370_1591)"/>
<path d="M30.2295 19.7478C30.2295 20.1555 30.2136 20.5613 30.18 20.9592C30.1028 20.9037 30.0256 20.8483 29.9504 20.7949L29.9167 20.7711C27.8423 19.3242 25.4196 18.4988 22.8939 18.3741L19.3013 11.951C21.4707 12.1272 26.8804 12.8873 29.7485 16.1018C29.7485 16.1018 30.2314 18.483 30.2314 19.7478H30.2295Z" fill="url(#paint1_linear_370_1591)"/>
<path d="M29.3068 24.9378C28.9683 25.8681 28.5586 26.7034 28.0499 27.5387C27.848 27.1764 27.6916 26.8993 27.5689 26.6875C27.3809 26.3609 27.276 26.1887 27.2126 26.0917L25.0888 22.2953C25.8508 22.5427 26.789 22.8792 27.2958 23.1781C27.9965 23.5898 28.6497 24.0886 29.2356 24.6607C29.2593 24.6805 29.3009 24.7517 29.3187 24.8467L29.3068 24.9358V24.9378Z" fill="url(#paint2_linear_370_1591)"/>
<path d="M25.4983 30.6168L25.433 30.7277C23.8633 32.2122 22.1927 33.2494 20.0946 33.9481H19.9758C19.6947 33.9105 19.4236 33.7225 19.2494 33.4454C19.0594 33.1386 19.0138 32.7664 19.1286 32.426C19.5087 31.2918 21.1357 30.0349 23.2735 29.2253C23.5644 29.1145 23.9504 29.0432 24.2552 29.0432C24.3087 29.0432 24.3582 29.0472 24.4057 29.0512C24.8154 29.0907 25.1855 29.3263 25.3993 29.6826C25.5834 29.9894 25.619 30.3318 25.4983 30.6188V30.6168Z" fill="url(#paint3_linear_370_1591)"/>
<path d="M140.121 25.709L141.168 28.4512C140.37 29.0246 139.199 29.2989 138.002 29.2989C134.836 29.2989 132.991 27.6784 132.991 24.4874V18.9779H130.922V15.9863H132.991V12.7205H136.88V15.9863H140.221V18.9779H136.88V24.4375C136.88 25.5843 137.503 26.2076 138.551 26.2076C139.124 26.2076 139.697 26.033 140.121 25.709Z" fill="#E4E4E7"/>
<path d="M125.13 17.4572C126.078 16.1608 127.673 15.4877 129.742 15.4877V19.0776C129.418 19.0527 129.169 19.0277 128.87 19.0277C126.726 19.0277 125.305 20.1994 125.305 22.7672V29.0994H121.416V15.6871H125.13V17.4572Z" fill="#E4E4E7"/>
<path d="M118.827 22.4431C118.827 22.7423 118.777 23.1661 118.752 23.4902H108.605C108.979 25.1605 110.4 26.1826 112.445 26.1826C113.866 26.1826 114.888 25.7588 115.81 24.8863L117.879 27.13C116.633 28.551 114.763 29.2989 112.345 29.2989C107.708 29.2989 104.691 26.3821 104.691 22.3933C104.691 18.3796 107.758 15.4877 111.846 15.4877C115.785 15.4877 118.827 18.1303 118.827 22.4431ZM111.871 18.4294C110.101 18.4294 108.83 19.5014 108.556 21.2216H115.162C114.888 19.5263 113.616 18.4294 111.871 18.4294Z" fill="#E4E4E7"/>
<path d="M97.6117 29.2989C93.249 29.2989 90.1328 26.4319 90.1328 22.3933C90.1328 18.3546 93.249 15.4877 97.6117 15.4877C100.429 15.4877 102.648 16.7093 103.62 18.9031L100.603 20.5235C99.8804 19.2521 98.8084 18.6787 97.5868 18.6787C95.6174 18.6787 94.0717 20.0499 94.0717 22.3933C94.0717 24.7367 95.6174 26.1078 97.5868 26.1078C98.8084 26.1078 99.8804 25.5594 100.603 24.263L103.62 25.9084C102.648 28.0524 100.429 29.2989 97.6117 29.2989Z" fill="#E4E4E7"/>
<path d="M81.8993 15.4877C85.0654 15.4877 87.4586 17.3325 87.4586 21.421V29.0994H83.5696V22.0193C83.5696 19.8504 82.5724 18.8532 80.8522 18.8532C78.9825 18.8532 77.6363 20 77.6363 22.4681V29.0994H73.7472V15.6871H77.4618V17.2577C78.5088 16.1109 80.0794 15.4877 81.8993 15.4877Z" fill="#E4E4E7"/>
<path d="M63.7934 29.2989C59.5303 29.2989 56.4141 26.4319 56.4141 22.3933C56.4141 18.3546 59.5303 15.4877 63.7934 15.4877C68.0564 15.4877 71.1477 18.3546 71.1477 22.3933C71.1477 26.4319 68.0564 29.2989 63.7934 29.2989ZM63.7934 26.1078C65.7379 26.1078 67.2088 24.7118 67.2088 22.3933C67.2088 20.0748 65.7379 18.6787 63.7934 18.6787C61.8488 18.6787 60.353 20.0748 60.353 22.3933C60.353 24.7118 61.8488 26.1078 63.7934 26.1078Z" fill="#E4E4E7"/>
<path d="M48.2161 29.3986C42.8063 29.3986 38.7676 25.6342 38.7676 20.374C38.7676 15.1137 42.8063 11.3493 48.241 11.3493C51.2575 11.3493 53.7754 12.4462 55.4208 14.4406L52.8281 16.8339C51.6564 15.4877 50.1855 14.7897 48.4404 14.7897C45.1746 14.7897 42.8561 17.0832 42.8561 20.374C42.8561 23.6647 45.1746 25.9583 48.4404 25.9583C50.1855 25.9583 51.6564 25.2602 52.8281 23.8891L55.4208 26.2823C53.7754 28.3017 51.2575 29.3986 48.2161 29.3986Z" fill="#E4E4E7"/>
<path d="M206.542 29.0994V26.3073L206.418 25.7837V21.0221C206.418 20.0083 206.118 19.2272 205.52 18.6787C204.938 18.1136 204.058 17.8311 202.878 17.8311C202.096 17.8311 201.332 17.964 200.584 18.23C199.836 18.4793 199.205 18.82 198.689 19.2521L197.692 17.4571C198.374 16.9087 199.188 16.4932 200.135 16.2106C201.099 15.9115 202.105 15.7619 203.152 15.7619C204.963 15.7619 206.359 16.2023 207.34 17.0832C208.321 17.964 208.811 19.3103 208.811 21.1218V29.0994H206.542ZM202.204 29.249C201.224 29.249 200.36 29.0828 199.612 28.7504C198.88 28.418 198.315 27.9609 197.917 27.3792C197.518 26.7809 197.318 26.1078 197.318 25.3599C197.318 24.6453 197.484 23.9971 197.817 23.4154C198.166 22.8337 198.723 22.3683 199.487 22.0193C200.268 21.6703 201.315 21.4958 202.628 21.4958H206.816V23.2159H202.728C201.531 23.2159 200.725 23.4154 200.31 23.8143C199.894 24.2131 199.687 24.6951 199.687 25.2602C199.687 25.9084 199.944 26.4319 200.459 26.8308C200.975 27.213 201.689 27.4042 202.603 27.4042C203.501 27.4042 204.282 27.2047 204.947 26.8059C205.628 26.407 206.118 25.8253 206.418 25.0608L206.891 26.7061C206.575 27.4873 206.019 28.1105 205.221 28.5759C204.423 29.0246 203.418 29.249 202.204 29.249Z" fill="#E4E4E7"/>
<path d="M184.068 29.0994V27.5537L192.544 17.0333L193.018 17.856H184.218V15.8866H194.938V17.4571L186.462 27.9526L185.913 27.1299H195.137V29.0994H184.068Z" fill="#E4E4E7"/>
<path d="M178.642 29.0994V26.3073L178.518 25.7837V21.0221C178.518 20.0083 178.218 19.2272 177.62 18.6787C177.038 18.1136 176.158 17.8311 174.977 17.8311C174.196 17.8311 173.432 17.964 172.684 18.23C171.936 18.4793 171.304 18.82 170.789 19.2521L169.792 17.4571C170.473 16.9087 171.288 16.4932 172.235 16.2106C173.199 15.9115 174.205 15.7619 175.252 15.7619C177.063 15.7619 178.459 16.2023 179.44 17.0832C180.421 17.964 180.911 19.3103 180.911 21.1218V29.0994H178.642ZM174.304 29.249C173.324 29.249 172.46 29.0828 171.712 28.7504C170.98 28.418 170.415 27.9609 170.016 27.3792C169.618 26.7809 169.418 26.1078 169.418 25.3599C169.418 24.6453 169.584 23.9971 169.917 23.4154C170.266 22.8337 170.823 22.3683 171.587 22.0193C172.368 21.6703 173.415 21.4958 174.728 21.4958H178.916V23.2159H174.828C173.631 23.2159 172.825 23.4154 172.41 23.8143C171.994 24.2131 171.786 24.6951 171.786 25.2602C171.786 25.9084 172.044 26.4319 172.559 26.8308C173.075 27.213 173.789 27.4042 174.703 27.4042C175.601 27.4042 176.382 27.2047 177.047 26.8059C177.728 26.407 178.218 25.8253 178.518 25.0608L178.991 26.7061C178.675 27.4873 178.119 28.1105 177.321 28.5759C176.523 29.0246 175.518 29.249 174.304 29.249Z" fill="#E4E4E7"/>
<path d="M163.477 29.0994V10.6014H165.871V29.0994H163.477Z" fill="#E4E4E7"/>
<path d="M145.835 29.0994V11.6485H152.641C154.17 11.6485 155.475 11.8895 156.555 12.3714C157.635 12.8534 158.466 13.5515 159.048 14.4656C159.63 15.3796 159.92 16.4683 159.92 17.7314C159.92 18.9945 159.63 20.0831 159.048 20.9972C158.466 21.8947 157.635 22.5927 156.555 23.0913C155.475 23.5733 154.17 23.8143 152.641 23.8143H147.206L148.328 22.6426V29.0994H145.835ZM148.328 22.8919L147.206 21.6454H152.566C154.162 21.6454 155.367 21.3047 156.181 20.6232C157.012 19.9418 157.427 18.9779 157.427 17.7314C157.427 16.4849 157.012 15.5209 156.181 14.8395C155.367 14.1581 154.162 13.8174 152.566 13.8174H147.206L148.328 12.5709V22.8919Z" fill="#E4E4E7"/>
<defs>
<linearGradient id="paint0_linear_370_1591" x1="39.4749" y1="-0.579855" x2="42.3559" y2="46.7558" gradientUnits="userSpaceOnUse">
<stop stop-color="#71E9DE"/>
<stop offset="0.87" stop-color="#3A1EA1"/>
</linearGradient>
<linearGradient id="paint1_linear_370_1591" x1="-79.1832" y1="-53.2993" x2="-66.0794" y2="103.829" gradientUnits="userSpaceOnUse">
<stop stop-color="#71E9DE"/>
<stop offset="0.87" stop-color="#3A1EA1"/>
</linearGradient>
<linearGradient id="paint2_linear_370_1591" x1="-565.753" y1="-150.153" x2="-550.726" y2="120.849" gradientUnits="userSpaceOnUse">
<stop stop-color="#71E9DE"/>
<stop offset="0.87" stop-color="#3A1EA1"/>
</linearGradient>
<linearGradient id="paint3_linear_370_1591" x1="45.171" y1="-1.4312" x2="48.4464" y2="45.853" gradientUnits="userSpaceOnUse">
<stop stop-color="#71E9DE"/>
<stop offset="0.87" stop-color="#3A1EA1"/>
</linearGradient>
</defs>
</svg>
