<svg width="16" height="20" viewBox="0 0 16 20" fill="none" xmlns="http://www.w3.org/2000/svg">
<path d="M6.95 8.5L6.25 7.8C6.05 7.6 5.81667 7.5 5.55 7.5C5.28333 7.5 5.05 7.6 4.85 7.8C4.65 8 4.55 8.2375 4.55 8.5125C4.55 8.7875 4.65 9.025 4.85 9.225L6.25 10.65C6.45 10.85 6.68333 10.95 6.95 10.95C7.21667 10.95 7.45 10.85 7.65 10.65L11.2 7.1C11.4 6.9 11.5 6.6625 11.5 6.3875C11.5 6.1125 11.4 5.875 11.2 5.675C11 5.475 10.7625 5.375 10.4875 5.375C10.2125 5.375 9.975 5.475 9.775 5.675L6.95 8.5ZM8 17.35C10.0333 15.4833 11.5417 13.7875 12.525 12.2625C13.5083 10.7375 14 9.38333 14 8.2C14 6.38333 13.4208 4.89583 12.2625 3.7375C11.1042 2.57917 9.68333 2 8 2C6.31667 2 4.89583 2.57917 3.7375 3.7375C2.57917 4.89583 2 6.38333 2 8.2C2 9.38333 2.49167 10.7375 3.475 12.2625C4.45833 13.7875 5.96667 15.4833 8 17.35ZM8 19.325C7.76667 19.325 7.53333 19.2833 7.3 19.2C7.06667 19.1167 6.85833 18.9917 6.675 18.825C5.59167 17.825 4.63333 16.85 3.8 15.9C2.96667 14.95 2.27083 14.0292 1.7125 13.1375C1.15417 12.2458 0.729167 11.3875 0.4375 10.5625C0.145833 9.7375 0 8.95 0 8.2C0 5.7 0.804167 3.70833 2.4125 2.225C4.02083 0.741667 5.88333 0 8 0C10.1167 0 11.9792 0.741667 13.5875 2.225C15.1958 3.70833 16 5.7 16 8.2C16 8.95 15.8542 9.7375 15.5625 10.5625C15.2708 11.3875 14.8458 12.2458 14.2875 13.1375C13.7292 14.0292 13.0333 14.95 12.2 15.9C11.3667 16.85 10.4083 17.825 9.325 18.825C9.14167 18.9917 8.93333 19.1167 8.7 19.2C8.46667 19.2833 8.23333 19.325 8 19.325Z" fill="#E4E4E7"/>
</svg>
