<svg width="24" height="24" viewBox="0 0 24 24" fill="none" xmlns="http://www.w3.org/2000/svg">
<g clip-path="url(#clip0_391_1706)">
<path d="M12.919 4.18448C14.5946 7.10978 16.1588 10.1039 17.8415 13.0256C17.9246 13.1704 18.2925 13.8765 18.4136 13.8765C18.55 13.8552 18.6248 13.7448 18.6248 13.6095L18.6378 4.38741C18.7126 4.16787 18.8989 4.07056 19.1244 4.04563C19.6371 3.98867 20.9852 3.9863 21.4955 4.04563C21.8396 4.08598 21.969 4.34113 22.001 4.66511V19.0542C21.9654 19.4292 21.8254 19.6405 21.4385 19.6761C20.5414 19.7568 18.6521 19.7639 17.7608 19.6761C17.6256 19.663 17.6089 19.6725 17.4938 19.5871C17.3087 19.4494 16.7094 18.2924 16.5397 17.9957C14.9898 15.2709 13.5171 12.4999 11.9803 9.76806C11.8652 9.6031 11.7524 9.44883 11.6065 9.67075L11.5495 19.3213C11.4296 19.5681 11.2825 19.6524 11.0166 19.6761C10.5194 19.7212 9.11313 19.7425 8.64912 19.6702C8.46873 19.6417 8.33701 19.5135 8.24681 19.3628C8.15069 14.4011 8.21477 9.4156 8.21477 4.44556C8.28598 4.23433 8.47229 4.0575 8.70371 4.04682C9.93198 4.16075 11.419 3.89967 12.6152 4.04563C12.7362 4.05988 12.8276 4.1109 12.9202 4.18448H12.919Z" fill="#D3ABF6"/>
<path d="M2.44127 4.06198C3.36811 4.11419 4.48483 3.94093 5.38912 4.04655C5.71072 4.08334 5.80803 4.24948 5.83533 4.54854C5.88636 5.10274 5.89704 6.37848 5.83414 6.92081C5.79498 7.25191 5.58137 7.39669 5.27282 7.42518C4.63792 7.48333 3.16518 7.49519 2.54452 7.42399C2.19443 7.38364 2.07813 7.12019 2.04253 6.80095C1.98913 6.32508 1.98557 5.08138 2.04134 4.60906C2.07101 4.35154 2.20393 4.16285 2.44127 4.06198Z" fill="#E4E4E7"/>
</g>
<defs>
<clipPath id="clip0_391_1706">
<rect width="20" height="15.7408" fill="white" transform="translate(2 4)"/>
</clipPath>
</defs>
</svg>
